<svg width="202" height="56" viewBox="0 0 202 56" fill="none" xmlns="http://www.w3.org/2000/svg">
<path fill-rule="evenodd" clip-rule="evenodd" d="M184.796 20.5113C184.764 20.5265 184.715 20.5341 184.65 20.5341H184.323V20.1563H184.659C184.722 20.1571 184.768 20.1654 184.799 20.1813C184.856 20.2108 184.883 20.2681 184.883 20.353C184.882 20.4321 184.854 20.4843 184.796 20.5113ZM185.142 21.2022C185.136 21.1784 185.135 21.1352 185.135 21.0715V20.9769C185.134 20.878 185.12 20.8055 185.094 20.7581C185.068 20.7093 185.023 20.6721 184.959 20.6465C185.036 20.6189 185.09 20.5738 185.123 20.51C185.157 20.4452 185.173 20.3796 185.173 20.3132C185.172 20.2569 185.163 20.2082 185.147 20.1654C185.128 20.1212 185.105 20.0821 185.076 20.0472C185.039 20.0032 184.995 19.9708 184.942 19.9487C184.89 19.9259 184.815 19.9145 184.718 19.9126H184.04V21.3175H184.323V20.7664H184.621C184.707 20.7676 184.765 20.7817 184.795 20.8111C184.827 20.842 184.842 20.9009 184.843 20.9906L184.845 21.1214C184.846 21.1633 184.85 21.203 184.858 21.2422C184.862 21.2623 184.868 21.287 184.876 21.3175H185.195V21.2826C185.166 21.265 185.15 21.2382 185.142 21.2022ZM174.899 24.8664C174.431 25.6918 174.451 26.4299 172.633 26.4299H169.695L171.067 23.1609H173.808C175.822 23.1609 174.937 24.4173 174.899 24.8664ZM179.572 20.7441H162.897L161.834 23.1609H164.296L160.575 31.8307H158.169L157.19 34.1909H168.465L169.5 31.8307H167.345L168.604 28.7325H174.844C180.215 28.7325 180.354 27.2541 181.698 24.5821C182.201 22.8481 183.936 20.7441 179.572 20.7441ZM151.547 25.6217L149.674 30.0511C148.975 31.6128 147.425 32.0671 146.599 32.0671H145.285C144.459 32.0671 142.293 31.897 143.272 29.0576L145.145 24.7701C146.096 23.0664 147.422 22.7826 148.248 22.7826H149.814C150.64 22.7826 152.497 23.5776 151.547 25.6217ZM150.457 20.6246C141.455 20.6246 140.001 21.8383 137.736 26.9561C135.248 32.5784 135.137 34.3104 145.117 34.3104C154.147 34.3104 155.797 31.3007 157.642 26.9561C160.021 21.352 158.872 20.6246 150.457 20.6246ZM120.691 20.7441H132.147L131.23 22.9559H128.968L125.187 31.833H129.483L133.035 27.8746H135.069L132.404 34.1909H115.019L115.964 31.833H118.485L122.266 22.9559H119.774L120.691 20.7441ZM96.4234 20.7441H104.329L108.854 29.4463L111.689 22.9559H109.197L110.171 20.7441H117.704L116.816 22.9559H114.496L109.656 34.1909H104.128L99.6317 25.517L96.8534 31.833H99.2882L98.228 34.1909H90.5523L91.5834 31.833H94.104L97.8844 22.9559H95.4214L96.4234 20.7441ZM184.568 21.7017C183.988 21.7017 183.517 21.224 183.517 20.6341C183.517 20.0444 183.988 19.5665 184.568 19.5665C185.149 19.5665 185.619 20.0444 185.619 20.6341C185.619 21.224 185.149 21.7017 184.568 21.7017ZM184.568 19.3619C183.877 19.3619 183.316 19.9314 183.316 20.6341C183.316 21.3367 183.877 21.9063 184.568 21.9063C185.26 21.9063 185.821 21.3367 185.821 20.6341C185.821 19.9314 185.26 19.3619 184.568 19.3619ZM72.6676 20.7441H84.4457L83.4412 22.988H80.9548L78.1173 29.5943C77.0374 32.4007 82.9644 33.2931 84.571 29.5943L87.3841 22.988H85.0485L86.053 20.7441H93.5869L92.5821 22.988H90.2718L87.4093 29.5943C85.2495 33.931 83.5669 34.1605 77.1628 34.262C69.8829 34.3784 70.2817 32.4256 71.4118 29.5943L74.2751 22.988H71.7131L72.6676 20.7441ZM61.4061 27.7389C60.6216 29.7611 59.7045 31.8995 57.7537 31.8995H54.5471L58.407 23.0357H60.664C63.2167 23.2448 62.0308 26.1289 61.4061 27.7389ZM64.4647 20.7441H49.945L48.9651 22.9749H51.4592L47.5399 31.8693H45.0159L43.9766 34.191H60.4562C64.4778 34.191 66.4949 31.452 68.0871 27.7947C69.542 24.4525 70.7338 20.7441 64.4647 20.7441Z" fill="#FEFEFE"/>
<path fill-rule="evenodd" clip-rule="evenodd" d="M21.0436 27.4651C21.0436 23.7528 24.0078 20.7441 27.6646 20.7441C31.3206 20.7441 34.2844 23.7528 34.2844 27.4651C34.2844 31.18 31.3206 34.1908 27.6646 34.1908C24.0078 34.1908 21.0436 31.18 21.0436 27.4651ZM41.9501 27.4675L19.9981 14.0208C19.9981 14.0208 24.4053 17.9393 27.3766 20.6226H26.4477C22.693 20.6226 19.6498 23.689 19.6498 27.4675C19.6498 31.2495 22.693 34.3097 26.4477 34.3097H27.3826L19.9981 40.9141L41.9501 27.4675Z" fill="#FEFEFE"/>
<path fill-rule="evenodd" clip-rule="evenodd" d="M29.7326 27.7655C29.5002 28.2033 28.7247 28.6384 28.0371 28.6384H26.9032L27.9137 26.2961H29.3302C29.9084 26.3456 30.0863 27.0051 29.7326 27.7655ZM30.14 24.731H24.1145L23.4794 26.2961H24.5898L23.6172 28.6384H22.9023L22.1897 30.2038H28.9567C30.5696 30.2038 32.544 29.7445 33.179 27.703C33.6246 26.2693 33.3041 24.731 30.14 24.731Z" fill="#FEFEFE"/>
<path fill-rule="evenodd" clip-rule="evenodd" d="M43.4257 39.2399L42.92 40.3731H43.8882C44.3672 40.3731 44.6804 40.1915 44.8517 39.8064C45.0432 39.3784 44.8731 39.2399 44.3472 39.2399H43.4257ZM44.663 38.5557C45.1788 38.5557 45.5234 38.5981 45.688 38.7477C45.9274 38.9669 45.9488 39.3306 45.7363 39.8064C45.5311 40.266 45.2433 40.5927 44.8531 40.806C44.4294 41.0361 44.0538 41.052 43.5796 41.052H42.6166L42.0174 42.3939H41.2222L42.9366 38.5557H44.663Z" fill="#FEFEFE"/>
<path fill-rule="evenodd" clip-rule="evenodd" d="M50.4905 39.2399L50.0586 40.2076H51.0324C51.5061 40.2076 51.7803 40.1111 51.955 39.7204C52.1313 39.3253 51.9379 39.2399 51.4643 39.2399H50.4905ZM51.9594 38.5557C52.8546 38.5557 53.1259 38.9032 52.7647 39.7103C52.5002 40.3041 52.0569 40.6833 51.5194 40.7904L51.7462 42.3939H50.8508L50.6922 40.8864H49.7551L49.0817 42.3939H48.2869L50.0014 38.5557H51.9594Z" fill="#FEFEFE"/>
<path fill-rule="evenodd" clip-rule="evenodd" d="M56.8919 40.4426C56.4742 41.3782 56.5859 41.8112 57.2968 41.8112C57.9968 41.8112 58.5114 41.3782 58.9151 40.4748C59.318 39.5714 59.1905 39.1381 58.4905 39.1381C57.8059 39.1381 57.2809 39.5714 56.8919 40.4426ZM58.7834 38.4803C60.0681 38.4803 60.3849 39.1168 59.778 40.4748C59.1717 41.8325 58.285 42.4739 57.0004 42.4739C55.7005 42.4739 55.4024 41.8325 56.0253 40.4374C56.6154 39.1168 57.5151 38.4803 58.7834 38.4803Z" fill="#FEFEFE"/>
<path fill-rule="evenodd" clip-rule="evenodd" d="M63.6402 39.2294L63.9392 38.5608H67.208L66.9091 39.2294H65.6832L64.2697 42.3939H63.4484L64.8617 39.2294H63.6402Z" fill="#FEFEFE"/>
<path fill-rule="evenodd" clip-rule="evenodd" d="M70.7196 40.1163H72.9197L72.6216 40.7847H70.4159C70.1132 41.4744 70.2694 41.7256 70.8957 41.7256H72.2016L71.9028 42.3938H70.5608C70.1027 42.3938 69.7668 42.3564 69.5317 42.0566C69.2829 41.7417 69.3178 41.2387 69.6283 40.5443C70.2353 39.1862 71.0798 38.5555 72.296 38.5555H73.617L73.3188 39.2232H72.0134C71.4396 39.2232 71.0205 39.5119 70.7196 40.1163Z" fill="#FEFEFE"/>
<path fill-rule="evenodd" clip-rule="evenodd" d="M77.1996 40.5762C76.8152 41.4371 76.9446 41.7256 77.6128 41.7256H78.9184L78.6203 42.3939H77.2776C76.8196 42.3939 76.4837 42.3565 76.2488 42.0573C76.0005 41.7417 76.0351 41.2391 76.3454 40.5443C76.952 39.1862 77.7965 38.5555 79.0134 38.5555H80.3341L80.0402 39.2127H78.7352C78.0665 39.2127 77.6249 39.6246 77.1996 40.5762Z" fill="#FEFEFE"/>
<path fill-rule="evenodd" clip-rule="evenodd" d="M83.3816 39.2294L83.6806 38.5608H86.9491L86.6509 39.2294H85.4246L84.0111 42.3939H83.1898L84.6029 39.2294H83.3816Z" fill="#FEFEFE"/>
<path fill-rule="evenodd" clip-rule="evenodd" d="M88.7858 42.3938L90.4995 38.5555H91.3314L89.6176 42.3938H88.7858Z" fill="#FEFEFE"/>
<path fill-rule="evenodd" clip-rule="evenodd" d="M94.7165 38.5555H95.6171L95.4768 41.4157L97.9174 38.5555H98.765L95.4716 42.3938H94.6506L94.7165 38.5555Z" fill="#FEFEFE"/>
<path fill-rule="evenodd" clip-rule="evenodd" d="M102.09 40.1163H104.29L103.992 40.7847H101.786C101.484 41.4744 101.639 41.7256 102.266 41.7256H103.572L103.273 42.3938H101.931C101.473 42.3938 101.137 42.3564 100.902 42.0566C100.653 41.7417 100.688 41.2387 100.999 40.5443C101.605 39.1862 102.45 38.5555 103.666 38.5555H104.987L104.689 39.2232H103.383C102.809 39.2232 102.391 39.5119 102.09 40.1163Z" fill="#FEFEFE"/>
<path fill-rule="evenodd" clip-rule="evenodd" d="M114.198 38.9937C114.63 38.689 115.169 38.5555 115.868 38.5555H117.08L116.781 39.2237H115.502C114.823 39.2237 114.396 39.4965 114.089 40.1592H116.363L116.067 40.822H113.793L113.092 42.3938H112.296L113.084 40.6298C113.425 39.8652 113.699 39.3469 114.198 38.9937Z" fill="#FEFEFE"/>
<path fill-rule="evenodd" clip-rule="evenodd" d="M120.548 40.4426C120.131 41.3782 120.243 41.8112 120.953 41.8112C121.654 41.8112 122.168 41.3782 122.571 40.4748C122.975 39.5714 122.847 39.1381 122.147 39.1381C121.463 39.1381 120.938 39.5714 120.548 40.4426ZM122.44 38.4803C123.725 38.4803 124.041 39.1168 123.434 40.4748C122.828 41.8325 121.942 42.4739 120.657 42.4739C119.357 42.4739 119.059 41.8325 119.682 40.4374C120.272 39.1168 121.172 38.4803 122.44 38.4803Z" fill="#FEFEFE"/>
<path fill-rule="evenodd" clip-rule="evenodd" d="M127.776 40.4426C127.358 41.3782 127.47 41.8112 128.181 41.8112C128.881 41.8112 129.396 41.3782 129.799 40.4748C130.203 39.5714 130.075 39.1381 129.375 39.1381C128.691 39.1381 128.166 39.5714 127.776 40.4426ZM129.668 38.4803C130.953 38.4803 131.269 39.1168 130.662 40.4748C130.056 41.8325 129.17 42.4739 127.885 42.4739C126.585 42.4739 126.287 41.8325 126.91 40.4374C127.5 39.1168 128.4 38.4803 129.668 38.4803Z" fill="#FEFEFE"/>
<path fill-rule="evenodd" clip-rule="evenodd" d="M134.525 39.2294L134.823 38.5608H138.092L137.794 39.2294H136.567L135.154 42.3939H134.333L135.746 39.2294H134.525Z" fill="#FEFEFE"/>
<path fill-rule="evenodd" clip-rule="evenodd" d="M142.064 38.5555L141.62 41.5064L143.675 38.5555H144.612L144.141 41.5064L146.276 38.5555H147.091L144.209 42.3938H143.235L143.709 39.5282L141.724 42.3938H140.755L141.211 38.5555H142.064Z" fill="#FEFEFE"/>
<path fill-rule="evenodd" clip-rule="evenodd" d="M150.585 40.1163H152.785L152.486 40.7847H150.281C149.978 41.4744 150.135 41.7256 150.762 41.7256H152.067L151.768 42.3938H150.426C149.968 42.3938 149.632 42.3564 149.397 42.0566C149.148 41.7417 149.183 41.2387 149.494 40.5443C150.1 39.1862 150.945 38.5555 152.161 38.5555H153.482L153.184 39.2232H151.878C151.305 39.2232 150.887 39.5119 150.585 40.1163Z" fill="#FEFEFE"/>
<path fill-rule="evenodd" clip-rule="evenodd" d="M157.257 40.7952H158.384L158.469 39.32L157.257 40.7952ZM159.263 38.5557L159.16 42.3939H158.275L158.336 41.4794H156.693L155.949 42.3939H155.106L158.42 38.5557H159.263Z" fill="#FEFEFE"/>
<path fill-rule="evenodd" clip-rule="evenodd" d="M164.784 39.2399L164.353 40.2076H165.327C165.8 40.2076 166.075 40.1111 166.249 39.7204C166.426 39.3253 166.233 39.2399 165.759 39.2399H164.784ZM166.253 38.5557C167.148 38.5557 167.419 38.9032 167.059 39.7103C166.794 40.3041 166.351 40.6833 165.813 40.7904L166.04 42.3939H165.145L164.987 40.8864H164.049L163.376 42.3939H162.581L164.295 38.5557H166.253Z" fill="#FEFEFE"/>
</svg>
