<svg width="41" height="41" viewBox="0 0 41 41" fill="none" xmlns="http://www.w3.org/2000/svg">
<path d="M20.1019 0.971191C9.13119 0.971191 0.265991 9.85862 0.265991 20.8072C0.265991 31.7558 9.15335 40.6432 20.1019 40.6432C31.0505 40.6432 39.9379 31.7558 39.9379 20.8072C39.9379 9.85862 31.0505 0.971191 20.1019 0.971191ZM9.44148 12.0084C12.0789 8.81688 15.9574 6.97744 20.1019 6.97744C24.2464 6.97744 28.125 8.81686 30.7624 11.9862L31.0948 12.3852H9.10904L9.44148 11.9862V12.0084ZM30.8953 29.4951C28.2579 32.7752 24.3129 34.6813 20.1019 34.6813C15.8909 34.6813 11.9681 32.7974 9.3085 29.5173L8.99819 29.1183H31.2056L30.8953 29.5173V29.4951Z" fill="white"/>
<path d="M0 20.807C0 9.70331 8.99823 0.705078 20.1019 0.705078V1.21479C14.6941 1.21479 9.7961 3.40899 6.25001 6.95509C2.70391 10.5012 0.509775 15.3992 0.509775 20.807C0.509775 26.2148 2.70391 31.1129 6.25001 34.6589C9.7961 38.205 14.6941 40.3991 20.1019 40.3991C25.5097 40.3991 30.4078 38.205 33.9539 34.6589C37.5 31.1129 39.6941 26.2148 39.6941 20.807C39.6941 15.3992 37.5 10.5012 33.9539 6.95509C30.4078 3.40899 25.5097 1.21479 20.1019 1.21479V0.705078C31.2056 0.705078 40.2039 9.70331 40.2039 20.807C40.2039 31.9107 31.2056 40.909 20.1019 40.909C8.99823 40.909 0 31.9107 0 20.807ZM31.6933 28.8079C29.1445 32.4869 24.9113 34.9027 20.1019 34.9027V34.393C24.3794 34.393 28.2136 32.3982 30.6959 29.3176H9.4858C11.9681 32.4204 15.8023 34.393 20.0798 34.393V34.9027C15.2704 34.9027 11.0373 32.4869 8.4885 28.8079H31.6711H31.6933ZM30.5629 12.1191C28.0807 9.10494 24.3129 7.19885 20.0798 7.19885V6.68914C24.8448 6.68914 29.0337 9.03843 31.6046 12.651H8.57717C11.1259 9.03843 15.3369 6.68914 20.1019 6.68914V7.19885C15.891 7.19885 12.1233 9.12699 9.61884 12.1412H30.5629V12.1191Z" fill="#29ABE3"/>
<path d="M12.7882 20.1421H10.0844V27.5001H12.7882V20.1421Z" fill="#1BB7EC"/>
<path d="M9.68534 20.1196H6.98145V27.4778H9.68534V20.1196Z" fill="#73CBF2"/>
<path d="M6.60461 20.1196H3.78992V27.4778H6.60461V20.1196Z" fill="#C7E7F9"/>
<path d="M36.3696 20.1421H13.187V27.5001H36.3696V20.1421Z" fill="#29ABE3"/>
<path d="M3.78992 18.4356C4.38832 18.6351 5.031 18.7902 5.67373 18.7902C6.16131 18.7902 6.78188 18.6351 6.78188 18.1919C6.78188 17.4161 3.90071 16.6847 3.90071 15.3993C3.90071 14.7122 4.54343 14.0474 6.24999 14.0474C6.80406 14.0474 7.38033 14.1137 7.9344 14.2024L8.08956 15.1555C7.62414 15.0225 7.11436 14.9116 6.60461 14.9116C5.80673 14.9116 5.49645 15.2441 5.49645 15.4879C5.49645 16.3522 8.37763 16.9285 8.37763 18.2361C8.37763 18.8567 7.80139 19.6546 5.96186 19.6546C5.29696 19.6546 4.63208 19.566 3.96719 19.4552L3.78992 18.4578V18.4356Z" fill="#29ABE3"/>
<path d="M11.8129 14.1362H13.6968L16.578 19.544H14.8936L13.9627 17.6602H11.2367L10.1729 19.544H8.44409L11.8129 14.1362ZM13.6081 16.7958L12.6994 14.9784L11.6578 16.7958H13.6081Z" fill="#29ABE3"/>
<path d="M16.1348 14.1362H22.0745V15.0006H19.9025V19.544H18.3068V15.0006H16.1348V14.1362Z" fill="#29ABE3"/>
<path d="M22.8059 14.1362H26.0196C27.3937 14.1362 28.3245 14.6238 28.3245 15.5103C28.3245 16.5077 27.6153 16.8623 26.485 17.084L28.3466 19.544H26.6622L24.6898 16.5521C24.8892 16.5521 25.1552 16.5963 25.3103 16.5963C26.1082 16.5963 26.7953 16.3304 26.7953 15.6877C26.7953 15.2887 26.5736 14.9341 25.7092 14.9341H24.2908V19.544H22.7837V14.1362H22.8059Z" fill="#29ABE3"/>
<path d="M31.6268 14.1362H33.5106L36.3918 19.544H34.7074L33.7766 17.6602H31.0505L29.9867 19.544H28.2579L31.6268 14.1362ZM33.422 16.7958L32.5133 14.9784L31.4716 16.7958H33.422Z" fill="#29ABE3"/>
<path d="M15.071 23.1118H16.6224V23.3335H16.0462V24.5303H15.6472V23.3335H15.071V23.1118Z" fill="white"/>
<path d="M18.1738 23.3335H17.2429V23.7103H18.063V23.9097H17.2429V24.3087H18.1738V24.5303H16.8219V23.1118H18.1738V23.3335Z" fill="white"/>
<path d="M19.9911 24.5303C19.836 24.5524 19.6586 24.5747 19.4813 24.5747C18.9051 24.5747 18.4175 24.353 18.4175 23.8432C18.4175 23.3335 18.9051 23.1118 19.4813 23.1118C19.6365 23.1118 19.8138 23.1119 19.9689 23.1562V23.3999C19.8581 23.3778 19.703 23.3335 19.4813 23.3335C19.1046 23.3335 18.8386 23.5108 18.8386 23.8432C18.8386 24.1757 19.1046 24.3529 19.4813 24.3529C19.703 24.3529 19.8581 24.3309 20.0132 24.2865L19.9689 24.5303H19.9911Z" fill="white"/>
<path d="M20.3236 23.1118H20.7447V23.6659H21.6755V23.1118H22.0966V24.5303H21.6755V23.8876H20.7447V24.5303H20.3236V23.1118Z" fill="white"/>
<path d="M22.4956 23.1118H23.0053L23.9362 24.1756V23.1118H24.2908V24.5303H23.8032L22.8723 23.4665V24.5303H22.4956V23.1118Z" fill="white"/>
<path d="M26.7286 23.8213C26.7286 24.331 26.241 24.5749 25.6648 24.5749C25.0886 24.5749 24.601 24.3532 24.601 23.8213C24.601 23.2893 25.0886 23.0898 25.6648 23.0898C26.241 23.0898 26.7286 23.3115 26.7286 23.8213ZM25.0442 23.8213C25.0442 24.1537 25.3102 24.331 25.687 24.331C26.0638 24.331 26.3297 24.1315 26.3297 23.8213C26.3297 23.511 26.0638 23.3116 25.687 23.3116C25.3102 23.3116 25.0442 23.4888 25.0442 23.8213Z" fill="white"/>
<path d="M27.0389 23.1118H27.46V24.3087H28.3244V24.5303H27.0389V23.1118Z" fill="white"/>
<path d="M30.5186 23.8213C30.5186 24.331 30.031 24.5749 29.4547 24.5749C28.8785 24.5749 28.3909 24.3532 28.3909 23.8213C28.3909 23.2893 28.8785 23.0898 29.4547 23.0898C30.031 23.0898 30.5186 23.3115 30.5186 23.8213ZM28.8342 23.8213C28.8342 24.1537 29.1001 24.331 29.4769 24.331C29.8537 24.331 30.1197 24.1315 30.1197 23.8213C30.1197 23.511 29.8537 23.3116 29.4769 23.3116C29.1001 23.3116 28.8342 23.4888 28.8342 23.8213Z" fill="white"/>
<path d="M32.5797 23.7105V24.4861C32.3359 24.5305 32.0921 24.5527 31.804 24.5527C31.2278 24.5527 30.7402 24.331 30.7402 23.8213C30.7402 23.4223 31.117 23.0898 31.8484 23.0898C32.0479 23.0898 32.2695 23.0899 32.469 23.1564V23.4002C32.3138 23.3558 32.1143 23.3116 31.9149 23.3116C31.4495 23.3116 31.1613 23.511 31.1613 23.8213C31.1613 24.1537 31.4272 24.331 31.804 24.331C31.9592 24.331 32.07 24.3311 32.1808 24.2867V23.9099H31.8484V23.7105H32.5797Z" fill="white"/>
<path d="M33.311 23.9318L32.6683 23.1118H33.1337L33.5327 23.6881L33.9759 23.1118H34.4192L33.7321 23.954V24.5303H33.311V23.9318Z" fill="white"/>
<path d="M12.5666 6.20122C12.345 5.86878 12.0791 5.44775 11.8353 5.02665C11.9682 5.44775 12.079 5.93528 12.1898 6.35638L12.5223 7.7083L12.0125 8.01861L11.0374 7.0878C10.7492 6.79968 10.3946 6.44507 10.1065 6.11262C10.3281 6.51156 10.5719 6.97698 10.7714 7.35375L11.3698 8.48409L10.7714 8.83864L9.21997 5.82449L10.0844 5.2926L10.9487 6.09044C11.2368 6.37856 11.5471 6.66673 11.8131 6.97701C11.7023 6.57808 11.5693 6.13471 11.4585 5.75793L11.1925 4.60555L12.0568 4.0957L13.9407 6.88827L13.298 7.26514L12.5888 6.17904L12.5666 6.20122Z" fill="#29ABE3"/>
<path d="M16.0461 4.7609L14.8492 5.13763L15.093 5.8911L16.4228 5.47013L16.6001 6.06844L14.5389 6.71126L13.5416 3.49758L15.5363 2.87695L15.7136 3.4754L14.4503 3.87432L14.672 4.53918L15.8466 4.16245L16.0461 4.7609Z" fill="#29ABE3"/>
<path d="M19.9247 4.40638C19.8803 4.00744 19.836 3.51987 19.7917 3.03228C19.7252 3.47554 19.6144 3.96321 19.5035 4.36214L19.1932 5.71406L18.5949 5.75829L18.1516 4.47293C18.0186 4.09616 17.8635 3.60853 17.7526 3.18744C17.7526 3.65286 17.7969 4.16262 17.7969 4.58372V5.86922L17.1321 5.91345V2.52257L18.1294 2.45602L18.5284 3.56417C18.6613 3.94094 18.7943 4.36211 18.9051 4.73888C18.9716 4.33994 19.0603 3.89669 19.1489 3.49775L19.4371 2.34523L20.4344 2.27881L20.8555 5.62532L20.1019 5.66969L19.969 4.38419L19.9247 4.40638Z" fill="#29ABE3"/>
<path d="M22.0301 2.47824C22.2295 2.47824 22.6507 2.52252 23.0274 2.56684C23.4929 2.6555 23.7588 2.74422 23.9804 2.92153C24.2021 3.07667 24.3129 3.34264 24.2686 3.63076C24.2242 3.91888 24.0026 4.18477 23.6037 4.25126C23.9583 4.42856 24.202 4.76099 24.1134 5.20426C24.0691 5.51454 23.8696 5.71409 23.648 5.84707C23.382 6.00221 22.9387 6.02431 22.296 5.91349C21.9192 5.847 21.6533 5.78059 21.4982 5.7141L22.0744 2.45605L22.0301 2.47824ZM22.296 5.35941C22.296 5.35941 22.4512 5.40381 22.5841 5.42597C22.9166 5.49246 23.2491 5.42601 23.3156 5.04923C23.382 4.71679 23.0939 4.53946 22.7171 4.47297L22.4512 4.4286L22.296 5.35941ZM22.562 3.87452L22.8058 3.91889C23.2047 3.98538 23.4485 3.85237 23.4928 3.60858C23.5372 3.36478 23.3599 3.18743 23.0274 3.14311C22.8723 3.12094 22.7615 3.09887 22.695 3.09887L22.562 3.87452Z" fill="#29ABE3"/>
<path d="M26.906 5.75815L25.7535 5.31499L25.4654 6.06846L26.7508 6.55612L26.5292 7.15443L24.5123 6.37878L25.7313 3.20947L27.6817 3.96294L27.4379 4.56139L26.2189 4.07387L25.9751 4.73873L27.1276 5.18202L26.906 5.75815Z" fill="#29ABE3"/>
<path d="M28.8564 4.60568C29.078 4.69433 29.4104 4.87157 29.7429 5.0932C30.164 5.35916 30.4299 5.60292 30.5186 5.89104C30.6072 6.13484 30.5629 6.40085 30.4077 6.64465C30.1861 7.02142 29.765 7.08789 29.4547 7.04357C29.6099 7.2652 29.5877 7.53124 29.499 7.81936C29.3882 8.19613 29.2331 8.61721 29.2331 8.77235L28.5682 8.35125C28.5682 8.35125 28.6569 7.97437 28.7899 7.55327C28.945 7.15434 28.8785 6.97711 28.6125 6.79981L28.4131 6.66683L27.7038 7.79717L27.0612 7.39825L28.8342 4.5835L28.8564 4.60568ZM28.7234 6.24573L28.9672 6.40089C29.2774 6.60035 29.5877 6.55594 29.7429 6.31215C29.9202 6.04619 29.8093 5.8024 29.5212 5.6251C29.3661 5.53644 29.2553 5.49224 29.211 5.47007L28.7234 6.26791V6.24573Z" fill="#29ABE3"/>
<path d="M6.937 29.5618L6.05049 30.8694C5.87319 31.1353 5.71804 31.357 5.5629 31.5786C5.78453 31.49 6.07269 31.3791 6.36081 31.2683L7.8457 30.7142L8.00085 30.9137L7.18083 32.2657C7.00353 32.5538 6.84838 32.7755 6.69324 32.9971C6.91487 32.8863 7.1808 32.7754 7.49108 32.6646L8.95385 32.0663L9.13119 32.2657L6.53808 33.263L6.38293 33.0857L7.20295 31.756C7.38025 31.4678 7.53544 31.2019 7.73491 30.9581C7.44679 31.0911 7.15868 31.2019 6.8484 31.3127L5.38563 31.8446L5.23047 31.6672L6.75973 29.3623L6.937 29.5618Z" fill="#29ABE3"/>
<path d="M9.4193 32.4649L8.86522 33.9276C8.75441 34.2379 8.66579 34.4817 8.55498 34.7255C8.75444 34.5703 8.99825 34.4153 9.26421 34.238L10.5939 33.3514L10.7935 33.5065L10.3059 35.0136C10.1951 35.3239 10.1064 35.5898 10.0177 35.8336C10.2172 35.6785 10.4388 35.5012 10.7048 35.3017L11.9681 34.3709L12.1897 34.5261L9.90689 36.1218L9.72962 35.9888L10.2172 34.5039C10.3059 34.1715 10.4166 33.9054 10.5275 33.6173C10.2837 33.8168 10.0178 33.9941 9.7518 34.1714L8.44412 35.0358L8.26685 34.9028L9.19773 32.2876L9.4193 32.4428V32.4649Z" fill="#29ABE3"/>
<path d="M12.5443 34.6815L12.367 36.2328C12.3448 36.5653 12.3005 36.8312 12.2561 37.075C12.4113 36.8756 12.5886 36.654 12.8102 36.4102L13.8741 35.2356L14.0957 35.3242L13.9849 36.8978C13.9627 37.2303 13.9406 37.5183 13.8963 37.7621C14.0514 37.5626 14.2287 37.341 14.4281 37.0972L15.4476 35.9005L15.6915 36.0112L13.8519 38.1168L13.6303 38.028L13.7411 36.4767C13.7411 36.1443 13.7854 35.8339 13.8298 35.5458C13.6303 35.8117 13.4308 36.0334 13.2092 36.2772L12.1454 37.4297L11.9237 37.341L12.1897 34.5928L12.4335 34.7036L12.5443 34.6815Z" fill="#29ABE3"/>
<path d="M15.3369 38.5823C15.2039 38.5602 15.1595 38.4052 15.1817 38.2943C15.226 38.1614 15.3369 38.0727 15.4698 38.117C15.6028 38.1392 15.6472 38.2721 15.625 38.4051C15.5807 38.5381 15.4698 38.6267 15.3369 38.5823Z" fill="#29ABE3"/>
<path d="M16.2455 38.4046C16.3785 38.5154 16.5558 38.6484 16.7996 38.6927C17.2207 38.7592 17.4423 38.5819 17.4866 38.2938C17.531 38.0057 17.398 37.8284 17.0434 37.6068C16.6444 37.363 16.445 37.0969 16.5115 36.7866C16.578 36.4098 16.9326 36.1218 17.4423 36.2105C17.6861 36.2548 17.8634 36.3656 17.9964 36.4764L17.8634 36.6758C17.8634 36.6758 17.6418 36.4764 17.3759 36.4321C17.0434 36.3656 16.8439 36.565 16.7996 36.7866C16.7553 37.0526 16.9104 37.2078 17.2428 37.4072C17.6418 37.651 17.8413 37.8949 17.7748 38.2938C17.6861 38.7371 17.2871 38.9808 16.7552 38.8921C16.5114 38.8478 16.2899 38.737 16.1125 38.5818L16.2455 38.3824V38.4046Z" fill="#29ABE3"/>
<path d="M20.1683 38.5154C20.1683 38.7149 20.1683 38.9364 20.1683 39.1359H19.9246V38.737H19.8802C19.7472 38.9364 19.437 39.1581 19.0159 39.1359C18.484 39.1359 18.2623 38.737 18.2623 38.3824C18.2845 37.7619 18.8386 37.4293 19.9246 37.4737V37.4072C19.9246 37.1413 19.9245 36.6094 19.2818 36.6094C19.0602 36.6094 18.8164 36.6536 18.6169 36.7866L18.5505 36.5872C18.7943 36.4321 19.0823 36.3877 19.3261 36.3877C20.1018 36.4099 20.2127 37.0082 20.1905 37.4737L20.1462 38.4932L20.1683 38.5154ZM19.9467 37.7176C19.3704 37.6732 18.5947 37.7175 18.5726 38.3602C18.5726 38.737 18.7942 38.9143 19.0824 38.9365C19.5256 38.9365 19.7915 38.6926 19.8802 38.4488C19.8802 38.3824 19.9024 38.3382 19.9246 38.2938V37.7176H19.9467Z" fill="#29ABE3"/>
<path d="M21.2546 35.8562L21.2989 36.4324L22.0524 36.3659V36.5654L21.3211 36.632L21.454 38.3384C21.4762 38.6709 21.6092 38.8704 21.8751 38.8483C22.0081 38.8483 22.1189 38.8039 22.1854 38.7817L22.2297 38.9812C22.2297 38.9812 22.0303 39.0698 21.8751 39.0698C21.6757 39.0698 21.5205 39.0255 21.4097 38.9147C21.2767 38.7817 21.2102 38.5823 21.188 38.2942L21.055 36.632L20.6118 36.6762V36.4768L21.0329 36.4324L20.9886 35.9449L21.2546 35.834V35.8562Z" fill="#29ABE3"/>
<path d="M22.6063 37.0751C22.562 36.8091 22.4955 36.5432 22.4512 36.2994L22.695 36.2551L22.8058 36.7869C22.8723 36.4323 23.0939 36.1222 23.4485 36.0557C23.4707 36.0557 23.515 36.0557 23.5593 36.0557L23.6037 36.2994C23.6037 36.2994 23.515 36.2994 23.4707 36.2994C23.1161 36.3659 22.9166 36.7205 22.9166 37.1416C22.9166 37.2303 22.9166 37.3189 22.9388 37.3854L23.2047 38.8261L22.9609 38.8703L22.6285 37.053L22.6063 37.0751Z" fill="#29ABE3"/>
<path d="M26.0638 37.4731C26.1303 37.6726 26.1968 37.8721 26.2854 38.0716L26.0638 38.1381L25.9086 37.7834C25.8421 38.0272 25.6427 38.3375 25.2437 38.4483C24.734 38.6034 24.3794 38.3154 24.2908 37.983C24.1134 37.4067 24.5123 36.897 25.554 36.5867V36.5201C25.4653 36.2542 25.2659 35.7887 24.6675 35.9661C24.4459 36.0325 24.2243 36.1656 24.0913 36.3429L23.9583 36.1878C24.1356 35.9661 24.4016 35.811 24.6232 35.7445C25.3546 35.5228 25.6648 36.0326 25.7978 36.4759L26.1081 37.4511L26.0638 37.4731ZM25.5762 36.7861C25.0221 36.9412 24.3129 37.2516 24.5123 37.85C24.6231 38.2046 24.9113 38.2932 25.1773 38.2267C25.5984 38.0938 25.7535 37.7613 25.7756 37.4953C25.7756 37.4288 25.7756 37.3845 25.7756 37.3402L25.5984 36.7861H25.5762Z" fill="#29ABE3"/>
<path d="M27.2162 37.7397C27.1054 37.784 26.9724 37.7397 26.9281 37.6067C26.8838 37.4737 26.9281 37.3407 27.0389 37.2964C27.1497 37.2521 27.2827 37.2964 27.327 37.4294C27.3714 37.5624 27.327 37.6954 27.2162 37.7397Z" fill="#29ABE3"/>
<path d="M29.6321 36.2989C29.6321 36.2989 29.3661 36.6313 29.0336 36.8307C28.3687 37.2075 27.6595 36.9637 27.2606 36.2545C26.8617 35.5231 27.0833 34.7475 27.7925 34.3707C28.0806 34.2155 28.3466 34.1712 28.4796 34.1933V34.4371C28.3466 34.4371 28.125 34.4593 27.8812 34.5923C27.2606 34.9247 27.1941 35.5896 27.5044 36.1215C27.8368 36.7199 28.4352 36.9195 28.9671 36.6314C29.2331 36.4762 29.3883 36.2989 29.4769 36.1881L29.6321 36.321V36.2989Z" fill="#29ABE3"/>
<path d="M31.3829 33.462C31.9813 34.2377 31.7154 34.9914 31.25 35.346C30.7181 35.7671 29.9645 35.6562 29.4548 35.0135C28.9007 34.3042 29.0558 33.5286 29.5877 33.1297C30.164 32.6864 30.8954 32.8194 31.3829 33.44V33.462ZM29.6542 34.8141C30.0532 35.346 30.6959 35.4789 31.117 35.1464C31.5603 34.814 31.6046 34.1491 31.1835 33.6172C30.8954 33.2404 30.2527 32.8637 29.6986 33.307C29.1667 33.7281 29.2996 34.393 29.6542 34.8363" fill="#29ABE3"/>
<path d="M31.4716 32.5532C31.2721 32.398 31.1391 32.2873 30.9618 32.1765L31.1169 31.9991L31.4938 32.2872C31.3608 31.9548 31.3608 31.6223 31.6267 31.2899C31.8705 31.0018 32.2251 30.9353 32.5575 31.0683C32.491 30.891 32.4467 30.758 32.4467 30.625C32.4467 30.4034 32.4911 30.2038 32.6684 30.0044C32.8235 29.8049 33.3333 29.4282 34.109 30.0709L35.3058 31.0683L35.1506 31.2677L33.976 30.2925C33.5106 29.9157 33.0895 29.8715 32.8014 30.2261C32.5797 30.4921 32.6019 30.8467 32.757 31.0905C32.8013 31.157 32.8457 31.2234 32.9343 31.2899L34.242 32.3758L34.0868 32.5754L32.8014 31.5336C32.4246 31.2234 32.0035 31.179 31.7375 31.5336C31.5159 31.7996 31.5602 32.1985 31.7375 32.4866C31.7818 32.5531 31.8484 32.6197 31.9149 32.6862L33.1781 33.7279L33.023 33.9273L31.4716 32.6418V32.5532Z" fill="#29ABE3"/>
</svg>
