<svg width="46" height="46" viewBox="0 0 46 46" fill="none" xmlns="http://www.w3.org/2000/svg">
<path d="M25.8458 23C25.8458 22.2133 25.5724 21.54 25.0258 20.98C24.4791 20.42 23.8058 20.14 23.0058 20.14C22.2058 20.14 21.5324 20.42 20.9858 20.98C20.4391 21.54 20.1591 22.2133 20.1458 23C20.1324 23.7867 20.4124 24.46 20.9858 25.02C21.5591 25.58 22.2324 25.86 23.0058 25.86C23.7791 25.86 24.4524 25.58 25.0258 25.02C25.5991 24.46 25.8724 23.7867 25.8458 23ZM27.3858 23C27.3858 24.2133 26.9591 25.2533 26.1058 26.12C25.2524 26.9867 24.2191 27.4133 23.0058 27.4C21.7924 27.3867 20.7524 26.96 19.8858 26.12C19.0191 25.28 18.5924 24.24 18.6058 23C18.6191 21.76 19.0458 20.72 19.8858 19.88C20.7258 19.04 21.7658 18.6133 23.0058 18.6C24.2458 18.5867 25.2791 19.0133 26.1058 19.88C26.9324 20.7467 27.3591 21.7867 27.3858 23ZM28.6058 18.42C28.6058 18.7 28.5058 18.94 28.3058 19.14C28.1058 19.34 27.8591 19.44 27.5658 19.44C27.2724 19.44 27.0324 19.34 26.8458 19.14C26.6591 18.94 26.5591 18.7 26.5458 18.42C26.5324 18.14 26.6324 17.9 26.8458 17.7C27.0591 17.5 27.2991 17.4 27.5658 17.4C27.8324 17.4 28.0791 17.5 28.3058 17.7C28.5324 17.9 28.6324 18.14 28.6058 18.42ZM23.0058 15.96C22.9524 15.96 22.6658 15.96 22.1458 15.96H20.9658C20.6991 15.96 20.3391 15.9733 19.8858 16C19.4324 16.0267 19.0524 16.06 18.7458 16.1C18.4391 16.14 18.1724 16.2133 17.9458 16.32C17.5724 16.4667 17.2458 16.68 16.9658 16.96C16.6858 17.24 16.4658 17.5667 16.3058 17.94C16.2258 18.1533 16.1591 18.42 16.1058 18.74C16.0524 19.06 16.0124 19.4467 15.9858 19.9C15.9591 20.3533 15.9524 20.7067 15.9658 20.96C15.9791 21.2133 15.9791 21.6067 15.9658 22.14C15.9524 22.6733 15.9524 22.96 15.9658 23C15.9791 23.04 15.9791 23.3267 15.9658 23.86C15.9524 24.3933 15.9524 24.7867 15.9658 25.04C15.9791 25.2933 15.9858 25.6467 15.9858 26.1C15.9858 26.5533 16.0258 26.94 16.1058 27.26L16.3058 28.06C16.4658 28.4333 16.6858 28.76 16.9658 29.04C17.2458 29.32 17.5724 29.5333 17.9458 29.68C18.1591 29.76 18.4258 29.8333 18.7458 29.9C19.0658 29.9667 19.4458 30 19.8858 30C20.3258 30 20.6858 30.0133 20.9658 30.04C21.2458 30.0667 21.6391 30.0667 22.1458 30.04C22.6524 30.0133 22.9391 30.0133 23.0058 30.04C23.0724 30.0667 23.3524 30.0667 23.8458 30.04C24.3391 30.0133 24.7324 30.0133 25.0258 30.04C25.3191 30.0667 25.6791 30.0533 26.1058 30C26.5324 29.9467 26.9191 29.9133 27.2658 29.9C27.6124 29.8867 27.8724 29.8133 28.0458 29.68C28.4191 29.5333 28.7524 29.32 29.0458 29.04C29.3391 28.76 29.5524 28.4333 29.6858 28.06C29.7658 27.8467 29.8324 27.58 29.8858 27.26C29.9391 26.94 29.9791 26.5533 30.0058 26.1C30.0324 25.6467 30.0391 25.2933 30.0258 25.04C30.0124 24.7867 30.0124 24.3933 30.0258 23.86C30.0391 23.3267 30.0391 23.04 30.0258 23C30.0124 22.96 30.0124 22.6733 30.0258 22.14C30.0391 21.6067 30.0391 21.2133 30.0258 20.96C30.0124 20.7067 30.0058 20.3533 30.0058 19.9C30.0058 19.4467 29.9658 19.06 29.8858 18.74L29.6858 17.94C29.5391 17.5667 29.3258 17.24 29.0458 16.96C28.7658 16.68 28.4324 16.4667 28.0458 16.32C27.8324 16.24 27.5724 16.1667 27.2658 16.1C26.9591 16.0333 26.5724 16 26.1058 16C25.6391 16 25.2791 15.9867 25.0258 15.96C24.7724 15.9333 24.3791 15.9333 23.8458 15.96C23.3124 15.9867 23.0324 15.9867 23.0058 15.96ZM31.5658 23C31.5658 24.7067 31.5458 25.8867 31.5058 26.54C31.4391 28.0867 30.9791 29.2867 30.1258 30.14C29.2724 30.9933 28.0791 31.4533 26.5458 31.52C25.8791 31.56 24.6991 31.58 23.0058 31.58C21.3124 31.58 20.1324 31.56 19.4658 31.52C17.9191 31.44 16.7191 30.98 15.8658 30.14C15.0124 29.3 14.5524 28.1 14.4858 26.54C14.4458 25.8867 14.4258 24.7067 14.4258 23C14.4258 21.2933 14.4458 20.1133 14.4858 19.46C14.5524 17.9133 15.0124 16.7133 15.8658 15.86C16.7191 15.0067 17.9191 14.5467 19.4658 14.48C20.1191 14.44 21.2991 14.42 23.0058 14.42C24.7124 14.42 25.8924 14.44 26.5458 14.48C28.0924 14.56 29.2858 15.02 30.1258 15.86C30.9658 16.7 31.4258 17.9 31.5058 19.46C31.5458 20.1133 31.5658 21.2933 31.5658 23Z" fill="white"/>
</svg>
