<svg width="46" height="46" viewBox="0 0 46 46" fill="none" xmlns="http://www.w3.org/2000/svg">
<path d="M33.7344 18.3438C33.8125 18.6562 33.8776 19.0469 33.9297 19.5156C34.0078 19.9844 34.0599 20.4531 34.0859 20.9219C34.112 21.3646 34.125 21.7812 34.125 22.1719C34.151 22.5625 34.1641 22.888 34.1641 23.1484V23.5C34.1641 25.8438 34.0208 27.5755 33.7344 28.6953C33.6042 29.138 33.3698 29.5286 33.0312 29.8672C32.6927 30.2057 32.2891 30.4401 31.8203 30.5703C31.3255 30.7005 30.388 30.8047 29.0078 30.8828C27.6276 30.9349 26.3646 30.974 25.2188 31H23.5C19.0469 31 16.2734 30.8568 15.1797 30.5703C14.1641 30.2839 13.526 29.6589 13.2656 28.6953C13.1354 28.2005 13.0312 27.5234 12.9531 26.6641C12.901 25.7786 12.862 25.0365 12.8359 24.4375V23.5C12.8359 21.1823 12.9792 19.4635 13.2656 18.3438C13.3958 17.875 13.6302 17.4714 13.9688 17.1328C14.3073 16.7943 14.7109 16.5599 15.1797 16.4297C15.6745 16.2995 16.612 16.2083 17.9922 16.1562C19.3724 16.0781 20.6354 16.026 21.7812 16H23.5C27.9531 16 30.7266 16.1432 31.8203 16.4297C32.2891 16.5599 32.6927 16.7943 33.0312 17.1328C33.3698 17.4714 33.6042 17.875 33.7344 18.3438ZM21.3125 26.7031L26.8984 23.5L21.3125 20.3359V26.7031Z" fill="white"/>
</svg>
