<svg width="146" height="42" viewBox="0 0 146 42" fill="none" xmlns="http://www.w3.org/2000/svg">
<path d="M22.828 34.8405H24.9778C26.8617 34.8849 27.8369 35.9043 27.8369 37.9433C27.8369 39.9823 26.8395 41.0019 24.9778 41.0462H22.828V34.8184V34.8405ZM23.4264 40.5585H24.6897C26.4849 40.5585 27.2606 39.805 27.2606 37.9433C27.2606 36.0816 26.4849 35.3281 24.6897 35.3281H23.4264V40.5365V40.5585Z" fill="#005C98"/>
<path d="M30.8289 34.8408H31.4937L33.9317 41.0686H33.2889L32.5354 39.1405H29.6985L28.945 41.0686H28.3022L30.8067 34.8408H30.8289ZM29.898 38.6306H32.3359L31.1391 35.4391L29.898 38.6306Z" fill="#005C98"/>
<path d="M34.7074 34.8408H37.5664C38.5859 34.8408 39.4503 35.3284 39.4503 36.4587C39.4503 37.2344 39.0514 37.8994 38.2313 38.0545C39.0514 38.1875 39.273 38.7414 39.3173 39.4728C39.3395 39.8939 39.3395 40.7584 39.6054 41.0686H38.9406C38.7854 40.8248 38.7854 40.3594 38.7854 40.0935C38.7411 39.2291 38.6524 38.2539 37.5443 38.2983H35.3058V41.0686H34.7074V34.8408ZM35.3058 37.7884H37.5221C38.2535 37.7884 38.8519 37.3452 38.8519 36.5695C38.8519 35.7938 38.4086 35.3283 37.5221 35.3283H35.3058V37.7664V37.7884Z" fill="#005C98"/>
<path d="M40.7358 34.8405H42.8857C44.7695 34.8849 45.7447 35.9043 45.7447 37.9433C45.7447 39.9823 44.7474 41.0019 42.8857 41.0462H40.7358V34.8184V34.8405ZM41.3342 40.5585H42.5975C44.3927 40.5585 45.1685 39.805 45.1685 37.9433C45.1685 36.0816 44.3927 35.3281 42.5975 35.3281H41.3342V40.5365V40.5585Z" fill="#005C98"/>
<path d="M47.2074 39.029C47.1852 40.3145 48.0939 40.7134 49.2464 40.7134C49.9113 40.7134 50.8865 40.3588 50.8865 39.4501C50.8865 38.7409 50.1773 38.475 49.601 38.3199L48.2269 37.9874C47.4956 37.8101 46.8307 37.4555 46.8307 36.4803C46.8307 35.8598 47.2296 34.7295 48.9805 34.7295C50.1994 34.7295 51.2854 35.3944 51.2854 36.6577H50.687C50.6427 35.7047 49.867 35.2392 48.9805 35.2392C48.1826 35.2392 47.429 35.5495 47.429 36.4803C47.429 37.0566 47.8723 37.3003 48.3599 37.4333L49.867 37.8101C50.7535 38.0539 51.4848 38.4306 51.4848 39.4501C51.4848 39.8712 51.3076 41.2233 49.1134 41.2233C47.6507 41.2233 46.5647 40.5583 46.6312 39.0512H47.2296L47.2074 39.029Z" fill="#005C98"/>
<path d="M59.8182 36.7241C59.6188 35.7711 58.8209 35.217 57.9122 35.217C56.2722 35.217 55.563 36.5911 55.563 37.943C55.563 39.295 56.2722 40.6912 57.9122 40.6912C59.0647 40.6912 59.796 39.8048 59.9068 38.6966H60.5053C60.3501 40.2259 59.375 41.2011 57.9122 41.2011C55.9397 41.2011 54.9867 39.6496 54.9867 37.9652C54.9867 36.2808 55.9619 34.7295 57.9122 34.7295C59.0869 34.7295 60.2615 35.4387 60.4167 36.7463H59.8182V36.7241Z" fill="#005C98"/>
<path d="M64.2286 34.7295C66.179 34.7295 67.1541 36.2808 67.1541 37.9652C67.1541 39.6496 66.179 41.2011 64.2286 41.2011C62.2782 41.2011 61.281 39.6496 61.281 37.9652C61.281 36.2808 62.2561 34.7295 64.2286 34.7295ZM64.2286 40.7134C65.8687 40.7134 66.5557 39.3394 66.5557 37.9874C66.5557 36.6355 65.8465 35.2614 64.2286 35.2614C62.6107 35.2614 61.8793 36.6355 61.8793 37.9874C61.8793 39.3394 62.5885 40.7134 64.2286 40.7134Z" fill="#005C98"/>
<path d="M68.2845 34.8408H69.1489L71.2987 40.315L73.4486 34.8408H74.3128V41.0686H73.7367V35.683H73.7145L71.5868 41.0686H71.0327L68.883 35.683V41.0686H68.2845V34.8408Z" fill="#005C98"/>
<path d="M75.7534 34.8408H76.6178L78.7898 40.315L80.9175 34.8408H81.8039V41.0686H81.2056V35.683H81.1834L79.0557 41.0686H78.5016L76.374 35.683H76.3519V41.0686H75.7534V34.8408Z" fill="#005C98"/>
<path d="M83.8873 34.8408H83.2889V41.0686H83.8873V34.8408Z" fill="#005C98"/>
<path d="M84.7295 34.8408H89.672V35.3505H87.4999V41.0686H86.9016V35.3505H84.7295V34.8408Z" fill="#005C98"/>
<path d="M89.7827 34.8408H94.725V35.3505H92.5531V41.0686H91.9547V35.3505H89.7827V34.8408Z" fill="#005C98"/>
<path d="M95.5229 34.8408H99.8226V35.3505H96.1214V37.6112H99.5788V38.0987H96.1214V40.5588H99.867V41.0686H95.5229V34.8408Z" fill="#005C98"/>
<path d="M100.908 34.8408H105.208V35.3505H101.507V37.6112H104.964V38.0987H101.507V40.5588H105.252V41.0686H100.908V34.8408Z" fill="#005C98"/>
<path d="M108.91 34.8408H109.796L111.946 40.315L114.073 34.8408H114.96V41.0686H114.362V35.683H114.339L112.212 41.0686H111.658L109.53 35.683H109.508V41.0686H108.91V34.8408Z" fill="#005C98"/>
<path d="M116.401 34.8408H120.7V35.3505H116.999V37.6112H120.479V38.0987H116.999V40.5588H120.745V41.0686H116.401V34.8408Z" fill="#005C98"/>
<path d="M121.786 34.8408H122.651L124.8 40.315L126.95 34.8408H127.815V41.0686H127.216V35.683L125.089 41.0686H124.512L122.385 35.683H122.363V41.0686H121.786V34.8408Z" fill="#005C98"/>
<path d="M129.277 34.8408H131.915C132.956 34.8408 133.909 35.2176 133.909 36.3701C133.909 37.035 133.466 37.6334 132.823 37.7664C133.621 37.8993 134.131 38.4978 134.131 39.2956C134.131 39.894 133.932 41.0686 131.893 41.0686H129.255V34.8408H129.277ZM129.876 37.5668H131.915C132.868 37.5668 133.311 37.1015 133.311 36.5031C133.311 35.7273 132.823 35.3283 131.915 35.3283H129.876V37.5447V37.5668ZM129.876 40.5588H131.915C132.801 40.5588 133.555 40.2708 133.555 39.2734C133.555 38.4756 132.956 38.0765 131.915 38.0765H129.876V40.5588Z" fill="#005C98"/>
<path d="M135.306 34.8408H139.583V35.3505H135.882V37.6112H139.362V38.0987H135.882V40.5588H139.627V41.0686H135.306V34.8408Z" fill="#005C98"/>
<path d="M140.691 34.8408H143.55C144.57 34.8408 145.434 35.3284 145.434 36.4587C145.434 37.2344 145.035 37.8994 144.215 38.0545C145.035 38.1875 145.257 38.7414 145.301 39.4728C145.323 39.8939 145.323 40.7584 145.589 41.0686H144.947C144.792 40.8248 144.792 40.3594 144.769 40.0935C144.725 39.2291 144.659 38.2539 143.528 38.2983H141.29V41.0686H140.691V34.8408ZM141.29 37.7884H143.506C144.237 37.7884 144.858 37.3452 144.858 36.5695C144.858 35.7938 144.393 35.3283 143.506 35.3283H141.29V37.7664V37.7884Z" fill="#005C98"/>
<path d="M10.6826 18.0411C10.6826 18.9055 10.7269 19.5926 10.7491 19.8585C10.7713 20.1688 10.8377 20.5012 10.8599 20.8115C10.8599 21.144 10.4166 21.1218 10.3501 20.8115C10.1507 19.9693 9.81825 19.1935 9.4858 18.3957C8.8874 17.0216 7.62407 14.3621 7.02566 12.9658C6.64889 12.1236 5.80674 11.6138 4.85372 11.6138H0V27.8372H4.52129V21.4321C4.52129 20.5678 4.47697 19.8807 4.4548 19.6147C4.43264 19.3045 4.36611 18.9942 4.34395 18.6618C4.34395 18.3293 4.78723 18.3515 4.85372 18.6618C5.05319 19.5039 6.07265 21.5651 6.4051 22.3629C7.0035 23.7371 7.6019 25.1111 8.2003 26.4853C8.57708 27.3274 9.4193 27.8372 10.3723 27.8372H15.226V11.6138H10.7047V18.0189L10.6826 18.0411Z" fill="#005C98"/>
<path d="M41.9104 11.636V18.0411C41.9104 18.9055 41.9547 19.5926 41.9769 19.8585C41.9991 20.1688 42.0655 20.4791 42.0877 20.8115C42.0877 21.144 41.6445 21.1218 41.578 20.8115C41.3785 19.9693 41.046 19.1935 40.7136 18.3957C40.1152 17.0216 38.8519 14.3399 38.2535 12.9658C37.8767 12.1236 37.0345 11.6138 36.0815 11.6138H31.2278V27.8372H35.7491V21.4321C35.7491 20.5678 35.7047 19.8807 35.6826 19.6147C35.6604 19.3045 35.5939 18.9942 35.5717 18.6618C35.5717 18.3293 36.015 18.3515 36.0815 18.6618C36.281 19.5039 37.2783 21.5651 37.6329 22.3629C38.2313 23.7371 38.8298 25.1333 39.4282 26.4853C39.8049 27.3274 40.6471 27.8372 41.6001 27.8372H46.4538V11.6138H41.9325L41.9104 11.636Z" fill="#005C98"/>
<path d="M17.2207 25.0888C17.2207 26.618 18.5062 27.8591 20.1241 27.8591H29.2996V23.8033H21.742V21.7865H26.6622V17.7306H21.742V15.6916H29.2996V11.6357H17.2207V25.0888Z" fill="#005C98"/>
<path d="M27.8147 8.62158H26.1303H20.1019H18.3953H17.2207V9.84052H29.2996V8.62158H27.8147Z" fill="#005C98"/>
<path d="M22.1409 1.90599H22.7172V2.48226C22.7172 2.48226 22.7172 2.5709 22.7615 2.61523C22.8058 2.70388 22.8945 2.7482 22.9832 2.7482H23.515C23.515 2.7482 23.6924 2.68172 23.7367 2.61523C23.7367 2.5709 23.781 2.52658 23.781 2.48226V1.90599H24.3573C24.5124 1.90599 24.6232 1.79519 24.6232 1.64005V1.10815C24.6232 0.953013 24.5124 0.842208 24.3573 0.842208H23.781V0.265946C23.781 0.110805 23.6702 0 23.515 0H22.9832C22.828 0 22.7172 0.110805 22.7172 0.265946V0.842208H22.1409C21.9858 0.842208 21.875 0.953013 21.875 1.10815V1.64005C21.875 1.79519 21.9858 1.90599 22.1409 1.90599Z" fill="#005C98"/>
<path d="M25.6427 5.49685V5.54108C25.6427 5.54108 25.6427 5.60754 25.6427 5.65187C25.6427 5.8735 25.6206 6.09524 25.5762 6.31687C25.5097 6.71581 25.3767 7.07039 25.1772 7.40284C25.0664 7.60231 24.9113 7.77959 24.7783 7.93473H27.0168C28.125 6.98172 28.5239 5.4968 27.9255 4.4773C27.3936 3.59077 26.219 3.32476 25.0886 3.72369C25.3324 4.0783 25.5097 4.49939 25.5983 4.96482C25.6205 5.14212 25.6427 5.29736 25.6648 5.47466" fill="#005C98"/>
<path d="M30.2084 4.83098C29.8538 4.29906 29.211 4.01093 28.4797 3.98877C28.5018 4.01093 28.524 4.05535 28.5462 4.07751C29.2332 5.20783 28.9894 6.73704 28.0364 7.91168H29.2997C30.4078 7.04732 30.829 5.71762 30.2084 4.80893" fill="#005C98"/>
<path d="M18.5948 4.4773C19.1267 3.59077 20.3014 3.32476 21.4317 3.72369C21.1879 4.0783 21.0106 4.49939 20.922 4.96482C20.8998 5.14212 20.8777 5.29736 20.8555 5.47466V5.62982C20.8555 5.85145 20.8555 6.07306 20.922 6.29469C20.9885 6.69362 21.1214 7.04821 21.3209 7.38066C21.4317 7.58012 21.5868 7.75741 21.7198 7.91255H19.5035C18.3954 6.95954 17.9742 5.47461 18.5948 4.45511" fill="#005C98"/>
<path d="M16.2899 4.83098C16.6446 4.29906 17.2873 4.01093 18.0187 3.98877C17.9965 4.01093 17.9743 4.05535 17.9522 4.07751C17.2651 5.20783 17.5089 6.73704 18.4619 7.91168H17.1986C16.0905 7.04732 15.6915 5.71762 16.2899 4.80893" fill="#005C98"/>
<path d="M24.9557 5.51841C24.9557 5.38543 24.9335 5.23028 24.9114 5.0973C24.7784 4.34376 24.3573 3.74542 23.8254 3.50163C23.6481 3.41297 23.4708 3.36865 23.2713 3.36865C23.0719 3.36865 22.8946 3.41297 22.7173 3.50163C22.1853 3.74542 21.7643 4.36592 21.6313 5.0973C21.6091 5.23028 21.5869 5.38543 21.5869 5.51841C21.5869 5.56273 21.5869 5.60705 21.5869 5.65138C21.5869 5.85085 21.587 6.02815 21.6313 6.20546C21.6978 6.5379 21.8086 6.82606 21.9415 7.06985C22.2518 7.60176 22.7394 7.93424 23.2713 7.93424C23.8032 7.93424 24.2908 7.60176 24.6011 7.06985C24.7563 6.82606 24.8671 6.51574 24.9114 6.20546C24.9557 6.02815 24.9557 5.85085 24.9557 5.65138C24.9557 5.60705 24.9557 5.56273 24.9557 5.51841Z" fill="#005C98"/>
</svg>
