<svg width="110" height="31" viewBox="0 0 110 31" fill="none" xmlns="http://www.w3.org/2000/svg">
<path fill-rule="evenodd" clip-rule="evenodd" d="M40.6667 18.0947L40.3394 19.8169C40.3394 19.8169 40.1672 19.7652 40.0639 19.7308C39.9606 19.7136 39.8573 19.6964 39.7712 19.6964C39.3234 19.6964 38.9101 19.8169 38.5656 20.058C38.2212 20.2991 37.9457 20.5919 37.7562 20.9708C37.5668 21.3496 37.4635 21.7629 37.4635 22.1934C37.4635 22.6067 37.5668 22.9512 37.7735 23.1923C37.9801 23.4334 38.2385 23.554 38.5829 23.5712C38.824 23.5712 39.0478 23.5195 39.2717 23.3989C39.4956 23.2784 39.685 23.0889 39.8572 22.8478L39.7883 23.5023H40.5978C40.5978 23.2956 40.6322 23.0889 40.6494 22.8478C40.6839 22.624 40.7183 22.4002 40.7527 22.1763L41.5277 18.112H40.6494L40.6667 18.0947ZM39.995 21.6424C39.9089 22.0213 39.7711 22.3312 39.5817 22.5206C39.3923 22.7273 39.1856 22.8306 38.9789 22.8306C38.7723 22.8306 38.6173 22.7446 38.5312 22.6068C38.4451 22.4518 38.3934 22.2624 38.3934 22.0385C38.3934 21.7629 38.4451 21.4874 38.5656 21.2463C38.6862 20.9879 38.8412 20.7813 39.0306 20.6263C39.22 20.4713 39.4612 20.3852 39.7023 20.3852C39.8056 20.3852 39.9089 20.3852 39.995 20.4197C40.0812 20.4541 40.15 20.4886 40.2017 20.523L39.9778 21.6424H39.995Z" fill="black"/>
<path fill-rule="evenodd" clip-rule="evenodd" d="M43.1466 23.5544C43.5599 23.5544 43.9387 23.4338 44.2487 23.2271C44.5587 23.0205 44.8171 22.7277 44.9893 22.3833C45.1615 22.0389 45.2648 21.6428 45.2648 21.2123C45.2648 20.9367 45.2131 20.6784 45.0926 20.4545C44.972 20.2306 44.817 20.0412 44.5932 19.9034C44.3693 19.7657 44.0937 19.6968 43.7665 19.6968C43.3532 19.6968 42.9744 19.8173 42.6644 20.024C42.3544 20.2306 42.0961 20.5234 41.9239 20.8678C41.7517 21.2122 41.6483 21.6083 41.6483 22.0216C41.6483 22.4694 41.7861 22.831 42.0444 23.1066C42.3027 23.3821 42.6816 23.5371 43.1466 23.5371V23.5544ZM43.2499 22.8655C43.026 22.8655 42.8538 22.7793 42.7333 22.6243C42.6127 22.4693 42.5438 22.2627 42.5438 22.0044C42.5438 21.7633 42.5955 21.5222 42.6816 21.2811C42.7677 21.0228 42.8883 20.8161 43.0605 20.6439C43.2327 20.4717 43.4221 20.3856 43.6632 20.3683C43.9215 20.3683 44.111 20.4717 44.2143 20.6439C44.3176 20.8161 44.3693 21.0056 44.3693 21.2123C44.3693 21.4706 44.3176 21.7116 44.2315 21.9699C44.1454 22.2282 44.0076 22.435 43.8527 22.59C43.6804 22.7622 43.491 22.8482 43.2671 22.8482L43.2499 22.8655Z" fill="black"/>
<path fill-rule="evenodd" clip-rule="evenodd" d="M49.6391 22.6585C49.553 22.7101 49.4324 22.7446 49.3119 22.779C49.1741 22.8135 49.0363 22.8306 48.8641 22.8306C48.6058 22.8306 48.4164 22.7618 48.2786 22.6069C48.1408 22.4519 48.0547 22.2451 48.0547 21.9696C48.0547 21.7112 48.1064 21.4529 48.2269 21.2291C48.3475 20.988 48.5025 20.7986 48.7091 20.6436C48.9158 20.4886 49.1569 20.4197 49.4497 20.4025C49.5702 20.4025 49.6908 20.4025 49.7769 20.4369C49.863 20.4542 49.949 20.4886 50.0179 20.523L50.2418 19.8341C50.2418 19.8341 50.0696 19.7653 49.9318 19.7308C49.7941 19.6964 49.6563 19.6792 49.4841 19.6792C49.0191 19.6792 48.623 19.7998 48.2614 20.0064C47.9169 20.2131 47.6414 20.5058 47.4347 20.8675C47.2281 21.2291 47.142 21.6252 47.1248 22.0558C47.1248 22.5035 47.2625 22.8652 47.5209 23.1235C47.7792 23.3818 48.1408 23.5196 48.6058 23.5368C48.8469 23.5368 49.0536 23.5196 49.2258 23.4679C49.4152 23.4163 49.553 23.3818 49.6563 23.3301L49.6219 22.6585H49.6391Z" fill="black"/>
<path fill-rule="evenodd" clip-rule="evenodd" d="M53.445 23.4679C53.445 23.244 53.445 22.9684 53.4794 22.6585C53.4966 22.3485 53.5483 22.0557 53.6 21.7802L53.9789 19.8514C53.8411 19.7997 53.6688 19.7653 53.4622 19.7308C53.2727 19.6964 53.0661 19.6792 52.8594 19.6792C52.2911 19.6792 51.8089 19.8169 51.4301 20.0753C51.0512 20.3336 50.7584 20.6608 50.5518 21.0397C50.3623 21.4357 50.259 21.8491 50.259 22.2796C50.259 22.6585 50.3623 22.9512 50.5518 23.1923C50.7412 23.4162 51.0168 23.5368 51.344 23.5368C51.5851 23.5368 51.809 23.4679 52.0501 23.3301C52.2739 23.1924 52.4806 22.9512 52.67 22.624H52.6873C52.67 22.779 52.6528 22.934 52.6356 23.0718C52.6356 23.2095 52.6184 23.3474 52.6184 23.4507H53.445V23.4679ZM52.7906 21.3841C52.6873 21.8491 52.5495 22.2107 52.3428 22.4691C52.1361 22.7102 51.9295 22.8479 51.7056 22.8479C51.5162 22.8479 51.3784 22.779 51.2923 22.6412C51.2062 22.5035 51.1718 22.3485 51.1718 22.1418C51.1718 21.8491 51.2406 21.5736 51.3612 21.3153C51.4817 21.0569 51.654 20.833 51.8778 20.6608C52.1017 20.4886 52.3428 20.4025 52.6184 20.3852C52.7733 20.3852 52.8939 20.3853 52.98 20.4197L52.7906 21.3841Z" fill="black"/>
<path fill-rule="evenodd" clip-rule="evenodd" d="M55.1671 23.4679L56.2004 18.0947H55.3049L54.2888 23.4679H55.1671Z" fill="black"/>
<path fill-rule="evenodd" clip-rule="evenodd" d="M58.7664 22.6585C58.6803 22.6929 58.5598 22.7446 58.4392 22.779C58.3015 22.8135 58.1637 22.8306 57.9915 22.8306C57.7331 22.8306 57.5437 22.7618 57.4059 22.6069C57.2682 22.4519 57.182 22.2451 57.182 21.9696C57.182 21.7112 57.2337 21.4529 57.3543 21.2291C57.4748 20.988 57.6298 20.7986 57.8365 20.6436C58.0431 20.4886 58.2842 20.4197 58.577 20.4025C58.6975 20.4025 58.8009 20.4025 58.9042 20.4369C58.9903 20.4542 59.0764 20.4886 59.1453 20.523L59.3692 19.8341C59.3692 19.8341 59.1969 19.7653 59.0592 19.7308C58.9214 19.6964 58.7837 19.6792 58.6114 19.6792C58.1465 19.6792 57.7503 19.7998 57.3887 20.0064C57.0443 20.2131 56.7688 20.5058 56.5621 20.8675C56.3554 21.2291 56.2693 21.6252 56.2521 22.0558C56.2521 22.4519 56.3554 22.7791 56.5793 23.0374C56.7859 23.3129 57.1132 23.4679 57.5609 23.5023L57.182 24.0534C57.3715 24.0534 57.492 24.1051 57.5782 24.1567C57.6643 24.2084 57.6987 24.2772 57.6987 24.3461C57.6987 24.4322 57.6642 24.484 57.6126 24.5184C57.5609 24.5528 57.492 24.57 57.4059 24.57C57.337 24.57 57.2682 24.5701 57.1993 24.5356C57.1304 24.5184 57.0615 24.4839 56.9926 24.4495L56.8204 24.8284C56.8204 24.8284 56.9582 24.8973 57.0615 24.9317C57.1648 24.9661 57.2681 24.9662 57.3887 24.9662C57.5953 24.9662 57.802 24.9144 57.9742 24.7939C58.1464 24.6733 58.2498 24.5012 58.267 24.2773C58.267 24.1567 58.2325 24.0362 58.1464 23.9501C58.0603 23.864 57.957 23.7951 57.8365 23.7607L58.0431 23.4679C58.1809 23.4679 58.3186 23.4334 58.4564 23.399C58.5942 23.3645 58.7148 23.3129 58.8009 23.2784L58.7664 22.6069V22.6585Z" fill="black"/>
<path fill-rule="evenodd" clip-rule="evenodd" d="M62.5895 23.4679C62.5895 23.244 62.5895 22.9684 62.624 22.6585C62.6412 22.3485 62.6929 22.0557 62.7445 21.7802L63.1234 19.8514C62.9856 19.7997 62.8134 19.7653 62.6067 19.7308C62.4173 19.6964 62.2107 19.6792 62.004 19.6792C61.4357 19.6792 60.9535 19.8169 60.5574 20.0753C60.1785 20.3336 59.8857 20.6608 59.6963 21.0397C59.5069 21.4357 59.4036 21.8491 59.4036 22.2796C59.4036 22.6585 59.5069 22.9512 59.6963 23.1923C59.8857 23.4162 60.1613 23.5368 60.4885 23.5368C60.7296 23.5368 60.9535 23.4679 61.1946 23.3301C61.4185 23.1924 61.6251 22.9512 61.8145 22.624H61.8318C61.8146 22.779 61.7973 22.934 61.7801 23.0718C61.7801 23.2095 61.7629 23.3474 61.7629 23.4507H62.5895V23.4679ZM61.9351 21.3841C61.8318 21.8491 61.694 22.2107 61.4873 22.4691C61.2807 22.7102 61.074 22.8479 60.8502 22.8479C60.6607 22.8479 60.523 22.779 60.4369 22.6412C60.3508 22.5035 60.3163 22.3485 60.3163 22.1418C60.3163 21.8491 60.3852 21.5736 60.5057 21.3153C60.6263 21.0569 60.7985 20.833 61.0224 20.6608C61.2463 20.4886 61.4873 20.4025 61.7629 20.3852C61.9179 20.3852 62.0384 20.3853 62.1245 20.4197L61.9351 21.3841Z" fill="black"/>
<path fill-rule="evenodd" clip-rule="evenodd" d="M66.7055 18.0947L66.3783 19.8169C66.3783 19.8169 66.206 19.7652 66.1027 19.7308C65.9994 19.7136 65.8961 19.6964 65.81 19.6964C65.3622 19.6964 64.9489 19.8169 64.6045 20.058C64.26 20.2991 63.9845 20.5919 63.7951 20.9708C63.6056 21.3496 63.5023 21.7629 63.5023 22.1934C63.5023 22.6067 63.6056 22.9512 63.8123 23.1923C64.0189 23.4334 64.2773 23.554 64.6217 23.5712C64.8628 23.5712 65.0867 23.5195 65.3105 23.3989C65.5344 23.2784 65.7239 23.0889 65.8961 22.8478L65.8272 23.5023H66.6366C66.6366 23.2956 66.6711 23.0889 66.6883 22.8478C66.7227 22.624 66.7572 22.4002 66.7916 22.1763L67.5665 18.112H66.6883L66.7055 18.0947ZM66.0339 21.6424C65.9478 22.0213 65.81 22.3312 65.6205 22.5206C65.4311 22.7273 65.2245 22.8306 65.0178 22.8306C64.8112 22.8306 64.6561 22.7446 64.57 22.6068C64.4839 22.4518 64.4322 22.2624 64.4322 22.0385C64.4322 21.7629 64.4839 21.4874 64.6045 21.2463C64.725 20.9879 64.88 20.7813 65.0695 20.6263C65.2589 20.4713 65.5 20.3852 65.7411 20.3852C65.8444 20.3852 65.9478 20.3852 66.0339 20.4197C66.12 20.4541 66.1888 20.4886 66.2405 20.523L66.0166 21.6424H66.0339Z" fill="black"/>
<path fill-rule="evenodd" clip-rule="evenodd" d="M69.1681 23.5544C69.5814 23.5544 69.9603 23.4338 70.2702 23.2271C70.5802 23.0205 70.8385 22.7277 71.0108 22.3833C71.183 22.0389 71.2863 21.6428 71.2863 21.2123C71.2863 20.9367 71.2346 20.6784 71.1141 20.4545C70.9935 20.2306 70.8386 20.0412 70.6147 19.9034C70.3908 19.7657 70.1153 19.6968 69.788 19.6968C69.3747 19.6968 68.9958 19.8173 68.6859 20.024C68.3759 20.2306 68.1176 20.5234 67.9453 20.8678C67.7731 21.2122 67.6698 21.6083 67.6698 22.0216C67.6698 22.4694 67.8076 22.831 68.0659 23.1066C68.3242 23.3821 68.7031 23.5371 69.1681 23.5371V23.5544ZM69.2714 22.8655C69.0476 22.8655 68.8753 22.7793 68.7548 22.6243C68.6342 22.4693 68.5653 22.2627 68.5653 22.0044C68.5653 21.7633 68.617 21.5222 68.7031 21.2811C68.7892 21.0228 68.9098 20.8161 69.082 20.6439C69.2542 20.4717 69.4436 20.3856 69.6847 20.3683C69.943 20.3683 70.1325 20.4717 70.2358 20.6439C70.3391 20.8161 70.3908 21.0056 70.3908 21.2123C70.3908 21.4706 70.3391 21.7116 70.253 21.9699C70.1669 22.2282 70.0291 22.435 69.8741 22.59C69.7019 22.7622 69.5125 22.8482 69.2886 22.8482L69.2714 22.8655Z" fill="black"/>
<path fill-rule="evenodd" clip-rule="evenodd" d="M76.315 18.0947L75.9878 19.8169C75.9878 19.8169 75.8156 19.7652 75.7123 19.7308C75.6089 19.7136 75.5056 19.6964 75.4195 19.6964C74.9545 19.6964 74.5584 19.8169 74.214 20.058C73.8696 20.2991 73.594 20.5919 73.4046 20.9708C73.2152 21.3496 73.1118 21.7629 73.1118 22.1934C73.1118 22.6067 73.2151 22.9512 73.4218 23.1923C73.6284 23.4334 73.8868 23.554 74.2312 23.5712C74.4723 23.5712 74.6962 23.5195 74.9201 23.3989C75.144 23.2784 75.3334 23.0889 75.5056 22.8478L75.4367 23.5023H76.2461C76.2461 23.2956 76.2806 23.0889 76.2978 22.8478C76.3322 22.624 76.3667 22.4002 76.4011 22.1763L77.1761 18.112H76.2978L76.315 18.0947ZM75.6434 21.6424C75.5573 22.0213 75.4195 22.3312 75.2301 22.5206C75.0406 22.7273 74.834 22.8306 74.6273 22.8306C74.4206 22.8306 74.2656 22.7446 74.1795 22.6068C74.0934 22.4518 74.0418 22.2624 74.0418 22.0385C74.0418 21.7629 74.0935 21.4874 74.214 21.2463C74.3346 20.9879 74.4895 20.7813 74.679 20.6263C74.8684 20.4713 75.1095 20.3852 75.3506 20.3852C75.454 20.3852 75.5573 20.3852 75.6434 20.4197C75.7295 20.4541 75.7983 20.4886 75.85 20.523L75.6261 21.6424H75.6434Z" fill="black"/>
<path fill-rule="evenodd" clip-rule="evenodd" d="M80.0003 22.6069C79.8625 22.6757 79.7247 22.7274 79.5525 22.779C79.3803 22.8307 79.1909 22.8479 78.9842 22.8479C78.812 22.8479 78.657 22.8135 78.5365 22.7618C78.3987 22.7101 78.3126 22.6068 78.2265 22.4863C78.192 22.4002 78.1576 22.314 78.1404 22.2107C78.1232 22.1074 78.1232 22.0213 78.1232 21.9524C78.8465 21.9697 79.432 21.9007 79.8625 21.7113C80.2931 21.5219 80.5341 21.1947 80.5341 20.7297C80.5341 20.4197 80.4136 20.1614 80.2069 19.9719C80.0003 19.7825 79.7075 19.6964 79.3459 19.6792C78.9153 19.6792 78.5537 19.7997 78.2437 20.0408C77.9337 20.2647 77.6926 20.5574 77.5204 20.9191C77.3482 21.2635 77.2621 21.6424 77.2621 22.0213C77.2621 22.469 77.3826 22.8479 77.6237 23.1235C77.8648 23.399 78.2437 23.5368 78.7603 23.554C78.9842 23.554 79.2253 23.5368 79.4492 23.4679C79.6731 23.4163 79.8797 23.3474 80.0692 23.244L79.983 22.6069H80.0003ZM79.7075 20.7469C79.7075 20.9708 79.5697 21.1086 79.2942 21.1947C79.0359 21.2808 78.6742 21.3152 78.2092 21.298C78.2609 21.0569 78.3815 20.8503 78.5537 20.6608C78.7259 20.4714 78.9498 20.3681 79.2253 20.3509C79.3631 20.3509 79.4836 20.3853 79.5697 20.4542C79.6559 20.5231 79.6903 20.6091 79.7075 20.7297V20.7469Z" fill="black"/>
<path fill-rule="evenodd" clip-rule="evenodd" d="M82.7731 24.9662L83.083 23.3817C83.083 23.3817 83.238 23.4506 83.3758 23.4851C83.4963 23.5195 83.6513 23.5368 83.8235 23.5368C84.2368 23.5368 84.6157 23.4162 84.9429 23.1751C85.2701 22.934 85.5112 22.6413 85.7007 22.2624C85.8729 21.8835 85.9762 21.4874 85.9762 21.0397C85.9762 20.6608 85.8901 20.3508 85.7007 20.0925C85.5112 19.8342 85.2185 19.6964 84.8224 19.6792C84.5813 19.6792 84.3574 19.7481 84.1335 19.8686C83.9269 19.9892 83.7374 20.1614 83.5652 20.3852L83.6513 19.748H82.8591C82.8247 19.9375 82.7903 20.1786 82.7558 20.4197C82.7214 20.678 82.6869 20.9191 82.6353 21.143L81.912 24.9662H82.7902H82.7731ZM83.3758 21.7802C83.4619 21.3496 83.5996 21.0053 83.8063 20.7814C84.013 20.5403 84.2196 20.4197 84.4607 20.4197C84.6846 20.4197 84.8224 20.5058 84.9085 20.6436C84.9946 20.7814 85.0463 20.9535 85.0291 21.1257C85.0291 21.4013 84.9774 21.6769 84.8568 21.9524C84.7535 22.2108 84.5985 22.4346 84.4091 22.6069C84.2196 22.7791 84.013 22.8651 83.7891 22.8824C83.6686 22.8824 83.548 22.8651 83.4619 22.8306C83.3586 22.7962 83.2725 22.7446 83.2036 22.6929L83.3586 21.7974L83.3758 21.7802Z" fill="black"/>
<path fill-rule="evenodd" clip-rule="evenodd" d="M87.9738 23.5544C88.3872 23.5544 88.766 23.4338 89.076 23.2271C89.386 23.0205 89.6443 22.7277 89.8165 22.3833C89.9888 22.0389 90.0921 21.6428 90.0921 21.2123C90.0921 20.9367 90.0404 20.6784 89.9199 20.4545C89.7993 20.2306 89.6443 20.0412 89.4204 19.9034C89.1965 19.7657 88.921 19.6968 88.5938 19.6968C88.1805 19.6968 87.8016 19.8173 87.4916 20.024C87.1817 20.2306 86.9233 20.5234 86.7511 20.8678C86.5789 21.2122 86.4756 21.6083 86.4756 22.0216C86.4756 22.4694 86.6133 22.831 86.8716 23.1066C87.13 23.3821 87.5089 23.5371 87.9738 23.5371V23.5544ZM88.0772 22.8655C87.8533 22.8655 87.6811 22.7793 87.5605 22.6243C87.44 22.4693 87.3711 22.2627 87.3711 22.0044C87.3711 21.7633 87.4228 21.5222 87.5089 21.2811C87.595 21.0228 87.7155 20.8161 87.8878 20.6439C88.06 20.4717 88.2494 20.3856 88.4905 20.3683C88.7488 20.3683 88.9382 20.4717 89.0416 20.6439C89.1449 20.8161 89.1965 21.0056 89.1965 21.2123C89.1965 21.4706 89.1449 21.7116 89.0588 21.9699C88.9727 22.2282 88.8349 22.435 88.6799 22.59C88.5077 22.7622 88.3183 22.8482 88.0944 22.8482L88.0772 22.8655Z" fill="black"/>
<path fill-rule="evenodd" clip-rule="evenodd" d="M91.3491 23.4683L91.6247 21.9871C91.6935 21.5911 91.8313 21.2467 92.0208 20.9711C92.2102 20.7128 92.4685 20.5578 92.7957 20.5578C92.8301 20.5578 92.8474 20.5578 92.8818 20.5578C92.9163 20.5578 92.9335 20.5578 92.9507 20.5578L93.1229 19.6968C93.1229 19.6968 93.054 19.6968 93.0196 19.6968C92.9851 19.6968 92.9507 19.6968 92.9335 19.6968C92.6752 19.6968 92.4513 19.7828 92.2618 19.9378C92.0552 20.0928 91.9002 20.2995 91.7796 20.5578H91.7625C91.7797 20.4201 91.7969 20.2995 91.8141 20.1617C91.8141 20.0239 91.8313 19.9034 91.8485 19.7829H91.0736C91.0736 19.9551 91.0392 20.1617 91.0047 20.42C90.9703 20.6784 90.9358 20.9367 90.8841 21.195L90.4536 23.4683H91.3319H91.3491Z" fill="black"/>
<path fill-rule="evenodd" clip-rule="evenodd" d="M94.2424 19.0937L94.1046 19.7826H93.6051L93.4846 20.4714H93.984L93.674 22.1246C93.6568 22.2624 93.6224 22.383 93.6224 22.4863C93.6224 22.5897 93.6051 22.693 93.6051 22.7963C93.6051 23.0202 93.6741 23.1924 93.8118 23.3302C93.9496 23.4679 94.1735 23.5368 94.4834 23.554C94.5868 23.554 94.6901 23.554 94.8106 23.554C94.914 23.554 95.0001 23.5196 95.069 23.5023L95.1551 22.8135C95.1551 22.8135 95.069 22.8135 95.0173 22.8307C94.9656 22.8307 94.914 22.8307 94.8623 22.8307C94.7418 22.8307 94.6557 22.7963 94.604 22.7446C94.5523 22.6929 94.5351 22.6069 94.5351 22.5036C94.5351 22.4347 94.5351 22.3485 94.5523 22.2452C94.5523 22.1591 94.5868 22.073 94.604 21.9868L94.8967 20.4886H95.7234L95.8611 19.7998H95.0345L95.2068 18.8525L94.294 19.1109L94.2424 19.0937Z" fill="black"/>
<path fill-rule="evenodd" clip-rule="evenodd" d="M98.7372 19.7822L98.41 21.5732C98.3239 21.952 98.1861 22.2621 97.9967 22.486C97.8073 22.7098 97.6006 22.8131 97.3767 22.8303C97.2045 22.8303 97.084 22.7787 97.0151 22.6754C96.9462 22.572 96.9118 22.4514 96.9118 22.2964C96.9118 22.2276 96.9118 22.1415 96.9118 22.0554C96.9118 21.9693 96.9462 21.8831 96.9634 21.7798L97.3423 19.7649H96.464L96.0679 21.8315C96.0335 21.9521 96.0163 22.0727 96.0163 22.176C96.0163 22.2793 95.999 22.3826 95.999 22.486C95.999 22.8648 96.1024 23.1231 96.2746 23.2953C96.464 23.4675 96.6879 23.5364 96.9634 23.5364C97.2045 23.5364 97.4284 23.4676 97.6523 23.347C97.8761 23.2265 98.0656 23.037 98.255 22.7959L98.1689 23.4331H98.9611C98.9783 23.2781 99.0128 23.1059 99.03 22.8992C99.0644 22.7098 99.0989 22.5032 99.1333 22.2793L99.6155 19.7305H98.7372V19.7822Z" fill="black"/>
<path fill-rule="evenodd" clip-rule="evenodd" d="M99.8223 24.8115C99.9428 24.8976 100.115 24.9492 100.322 25.0009C100.528 25.0526 100.752 25.0698 100.993 25.0698C101.234 25.0698 101.458 25.0525 101.699 24.9836C101.94 24.932 102.164 24.8115 102.354 24.6565C102.56 24.4843 102.715 24.2604 102.836 23.9676C102.957 23.6921 103.043 23.3649 103.112 23.0033L103.68 19.955C103.508 19.8689 103.318 19.8173 103.094 19.7656C102.87 19.714 102.647 19.6968 102.405 19.6968C101.889 19.6968 101.458 19.8345 101.097 20.0584C100.735 20.2995 100.459 20.5923 100.27 20.9711C100.081 21.35 99.9945 21.7289 99.9945 22.1594C99.9945 22.5211 100.098 22.8138 100.287 23.0721C100.477 23.3132 100.769 23.451 101.131 23.4683C101.372 23.4683 101.579 23.4166 101.768 23.3132C101.958 23.2099 102.13 23.0376 102.285 22.831L102.199 23.2444C102.113 23.6577 101.958 23.9676 101.751 24.1226C101.544 24.2776 101.303 24.3809 101.011 24.3637C100.838 24.3637 100.649 24.3465 100.477 24.2949C100.304 24.2604 100.149 24.2087 100.046 24.1398L99.8223 24.8115ZM102.492 21.5911C102.423 21.9355 102.285 22.211 102.096 22.4349C101.906 22.6588 101.699 22.7621 101.476 22.7794C101.252 22.7794 101.114 22.6933 101.011 22.5555C100.924 22.4005 100.873 22.2283 100.873 22.0389C100.873 21.7633 100.942 21.505 101.045 21.2639C101.166 21.0228 101.303 20.8162 101.51 20.6612C101.699 20.5062 101.941 20.42 102.199 20.42C102.302 20.42 102.405 20.4201 102.492 20.4545C102.578 20.4545 102.647 20.4889 102.698 20.5234L102.492 21.6256V21.5911Z" fill="black"/>
<path fill-rule="evenodd" clip-rule="evenodd" d="M107.245 23.4679C107.245 23.244 107.245 22.9684 107.279 22.6585C107.296 22.3485 107.348 22.0557 107.4 21.7802L107.778 19.8514C107.641 19.7997 107.468 19.7653 107.262 19.7308C107.072 19.6964 106.866 19.6792 106.659 19.6792C106.091 19.6792 105.609 19.8169 105.23 20.0753C104.851 20.3336 104.558 20.6608 104.351 21.0397C104.162 21.4357 104.059 21.8491 104.059 22.2796C104.059 22.6585 104.162 22.9512 104.351 23.1923C104.541 23.4162 104.816 23.5368 105.144 23.5368C105.385 23.5368 105.609 23.4679 105.85 23.3301C106.074 23.1924 106.28 22.9512 106.47 22.624H106.487C106.47 22.779 106.452 22.934 106.435 23.0718C106.435 23.2095 106.418 23.3474 106.418 23.4507H107.245V23.4679ZM106.59 21.3841C106.487 21.8491 106.349 22.2107 106.142 22.4691C105.936 22.7102 105.729 22.8479 105.505 22.8479C105.316 22.8479 105.178 22.779 105.092 22.6412C105.006 22.5035 104.971 22.3485 104.971 22.1418C104.971 21.8491 105.04 21.5736 105.161 21.3153C105.281 21.0569 105.454 20.833 105.677 20.6608C105.901 20.4886 106.142 20.4025 106.418 20.3852C106.573 20.3852 106.693 20.3853 106.78 20.4197L106.59 21.3841Z" fill="black"/>
<path fill-rule="evenodd" clip-rule="evenodd" d="M108.967 23.4679L110 18.0947H109.122L108.088 23.4679H108.967Z" fill="black"/>
<path fill-rule="evenodd" clip-rule="evenodd" d="M40.0122 15.0813C39.9261 15.133 39.8056 15.1674 39.685 15.2019C39.5473 15.2363 39.4095 15.2536 39.2373 15.2536C38.979 15.2536 38.7895 15.1847 38.6517 15.0297C38.514 14.8747 38.4279 14.6681 38.4279 14.3925C38.4279 14.1342 38.4795 13.8759 38.6001 13.652C38.7206 13.4109 38.8756 13.2214 39.0823 13.0664C39.2889 12.9115 39.5301 12.8425 39.8228 12.8253C39.9434 12.8253 40.0639 12.8254 40.15 12.8598C40.2361 12.877 40.3222 12.9114 40.3911 12.9459L40.615 12.2571C40.615 12.2571 40.4428 12.1882 40.305 12.1538C40.1672 12.1193 40.0295 12.1021 39.8572 12.1021C39.3923 12.1021 38.9962 12.2226 38.6345 12.4293C38.2901 12.6359 38.0146 12.9287 37.8079 13.2903C37.6012 13.652 37.5151 14.0481 37.4979 14.4786C37.4979 14.9264 37.6357 15.288 37.894 15.5463C38.1524 15.8046 38.514 15.9424 38.9789 15.9596C39.22 15.9596 39.4267 15.9424 39.5989 15.8908C39.7884 15.8391 39.9261 15.8046 40.0295 15.753L39.995 15.0813H40.0122Z" fill="black"/>
<path fill-rule="evenodd" clip-rule="evenodd" d="M43.4049 15.0297C43.2672 15.0986 43.1294 15.1502 42.9572 15.2019C42.785 15.2535 42.5955 15.2708 42.3889 15.2708C42.2167 15.2708 42.0617 15.2364 41.9239 15.1847C41.8034 15.1331 41.7 15.0297 41.6311 14.9091C41.5967 14.823 41.5623 14.737 41.5451 14.6336C41.5278 14.5303 41.5278 14.4442 41.5278 14.3753C42.2511 14.3925 42.8367 14.3236 43.2672 14.1342C43.6977 13.9447 43.9388 13.6175 43.9388 13.1525C43.9388 12.8425 43.8355 12.5842 43.6116 12.3948C43.4049 12.2053 43.1122 12.1193 42.7505 12.1021C42.32 12.1021 41.9584 12.2226 41.6484 12.4637C41.3384 12.6876 41.0973 12.9804 40.9251 13.342C40.7528 13.6865 40.6667 14.0653 40.6667 14.4441C40.6667 14.8919 40.7873 15.2708 41.0284 15.5463C41.2695 15.8219 41.6484 15.9596 42.165 15.9769C42.3889 15.9769 42.63 15.9597 42.8538 15.908C43.0777 15.8563 43.2844 15.7875 43.4738 15.6841L43.3877 15.0469L43.4049 15.0297ZM43.1122 13.1698C43.1122 13.3936 42.9744 13.5314 42.6989 13.6175C42.4405 13.7036 42.0789 13.7381 41.6139 13.7209C41.6656 13.4798 41.7861 13.2731 41.9584 13.0837C42.1306 12.8942 42.3545 12.7909 42.63 12.7737C42.7678 12.7737 42.8883 12.8081 42.9744 12.877C43.0605 12.9459 43.095 13.032 43.1122 13.1525V13.1698Z" fill="black"/>
<path fill-rule="evenodd" clip-rule="evenodd" d="M45.1098 15.8905L45.4199 14.1856C45.506 13.755 45.6609 13.4106 45.8676 13.1867C46.0742 12.9628 46.2809 12.8423 46.4876 12.8423C46.6598 12.8423 46.7803 12.894 46.8492 12.9973C46.9181 13.1006 46.9525 13.2211 46.9525 13.3761C46.9525 13.445 46.9525 13.5139 46.9525 13.6C46.9525 13.6689 46.9353 13.755 46.9181 13.8239L46.522 15.9077H47.4003L47.7964 13.755C47.8137 13.6689 47.8309 13.5656 47.8481 13.4451C47.8481 13.3245 47.8653 13.2383 47.8653 13.1522C47.8653 12.8078 47.7619 12.5496 47.5897 12.3774C47.4175 12.2051 47.1937 12.1362 46.9181 12.1362C46.6598 12.1362 46.4187 12.2051 46.1948 12.3256C45.9709 12.4462 45.7643 12.6356 45.5921 12.8767L45.6782 12.2223H44.886C44.8688 12.3773 44.8343 12.5495 44.8171 12.7562C44.7999 12.9628 44.7482 13.1522 44.6966 13.3761L44.2144 15.925H45.1098V15.8905Z" fill="black"/>
<path fill-rule="evenodd" clip-rule="evenodd" d="M49.3635 11.5162L49.2258 12.205H48.7263L48.6058 12.8939H49.1052L48.7952 14.5471C48.778 14.6848 48.7436 14.8054 48.7436 14.9087C48.7436 15.0121 48.7263 15.1154 48.7263 15.2187C48.7263 15.4426 48.7952 15.6148 48.933 15.7526C49.0708 15.8903 49.2947 15.9592 49.6047 15.9765C49.708 15.9765 49.8113 15.9764 49.9319 15.9592C50.0352 15.9592 50.1213 15.9248 50.1902 15.9076L50.2763 15.2187C50.2763 15.2187 50.1902 15.2187 50.1385 15.2359C50.0868 15.2359 50.0352 15.2359 49.9835 15.2359C49.863 15.2359 49.7769 15.2015 49.7252 15.1499C49.6736 15.0982 49.6563 15.0121 49.6563 14.9087C49.6563 14.8226 49.6563 14.7537 49.6736 14.6504C49.6736 14.5643 49.708 14.4782 49.7252 14.3921L50.0179 12.8939H50.8446L50.9823 12.205H50.1557L50.328 11.2578L49.4152 11.5162H49.3635Z" fill="black"/>
<path fill-rule="evenodd" clip-rule="evenodd" d="M51.8089 15.8901L52.0845 14.4091C52.1534 14.013 52.2912 13.6686 52.4806 13.393C52.67 13.1347 52.9283 12.9797 53.2555 12.9797C53.29 12.9797 53.3245 12.9797 53.3417 12.9797C53.3761 12.9797 53.3933 12.9797 53.4105 12.9797L53.5827 12.1187C53.5827 12.1187 53.5139 12.1187 53.4794 12.1187C53.445 12.1187 53.4106 12.1187 53.3933 12.1187C53.135 12.1187 52.9111 12.2048 52.7217 12.3598C52.515 12.5148 52.36 12.7214 52.2395 12.9797H52.2222C52.2395 12.842 52.2567 12.7214 52.2739 12.5837L52.3084 12.2047H51.5334C51.5334 12.377 51.4989 12.5836 51.4645 12.8419C51.4301 13.1002 51.3957 13.3586 51.344 13.6169L50.9135 15.8901H51.7917H51.8089Z" fill="black"/>
<path fill-rule="evenodd" clip-rule="evenodd" d="M55.1327 15.9762C55.546 15.9762 55.9249 15.8557 56.2348 15.649C56.5448 15.4424 56.8031 15.1496 56.9754 14.8052C57.1476 14.4608 57.2509 14.0647 57.2509 13.6341C57.2509 13.3586 57.1992 13.1003 57.0787 12.8764C56.9581 12.6525 56.8031 12.4631 56.5792 12.3253C56.3554 12.1875 56.0799 12.1187 55.7526 12.1187C55.3393 12.1187 54.9604 12.2392 54.6505 12.4459C54.3405 12.6525 54.0822 12.9453 53.9099 13.2897C53.7377 13.6341 53.6344 14.0302 53.6344 14.4435C53.6344 14.8913 53.7722 15.2529 54.0305 15.5285C54.2888 15.804 54.6677 15.959 55.1327 15.959V15.9762ZM55.236 15.2874C55.0121 15.2874 54.8399 15.2013 54.7194 15.0463C54.5988 14.8913 54.5299 14.6847 54.5299 14.4264C54.5299 14.1853 54.5816 13.9441 54.6677 13.703C54.7538 13.4447 54.8744 13.238 55.0466 13.0658C55.2188 12.8936 55.4082 12.8075 55.6493 12.7903C55.9076 12.7903 56.097 12.8936 56.2004 13.0658C56.3037 13.238 56.3554 13.4275 56.3554 13.6341C56.3554 13.8925 56.3037 14.1336 56.2176 14.3919C56.1315 14.6502 55.9937 14.8568 55.8387 15.0118C55.6665 15.184 55.4771 15.2702 55.2532 15.2702L55.236 15.2874Z" fill="black"/>
<path fill-rule="evenodd" clip-rule="evenodd" d="M59.9891 11.5162L59.8513 12.205H59.3519L59.2313 12.8939H59.7308L59.4208 14.5471C59.4036 14.6848 59.3691 14.8054 59.3691 14.9087C59.3691 15.0121 59.3519 15.1154 59.3519 15.2187C59.3519 15.4426 59.4208 15.6148 59.5585 15.7526C59.6963 15.8903 59.9202 15.9592 60.2302 15.9765C60.3335 15.9765 60.4368 15.9764 60.5574 15.9592C60.6607 15.9592 60.7468 15.9248 60.8157 15.9076L60.9018 15.2187C60.9018 15.2187 60.8157 15.2187 60.7641 15.2359C60.7124 15.2359 60.6607 15.2359 60.609 15.2359C60.4885 15.2359 60.4024 15.2015 60.3507 15.1499C60.299 15.0982 60.2819 15.0121 60.2819 14.9087C60.2819 14.8226 60.2818 14.7537 60.299 14.6504C60.299 14.5643 60.3335 14.4782 60.3507 14.3921L60.6435 12.8939H61.4701L61.6079 12.205H60.7812L60.9535 11.2578L60.0407 11.5162H59.9891Z" fill="black"/>
<path fill-rule="evenodd" clip-rule="evenodd" d="M64.3461 15.0297C64.2083 15.0986 64.0705 15.1502 63.8983 15.2019C63.7261 15.2535 63.5367 15.2708 63.33 15.2708C63.1578 15.2708 63.0029 15.2364 62.8651 15.1847C62.7445 15.1331 62.6412 15.0297 62.5723 14.9091C62.5379 14.823 62.5034 14.737 62.4862 14.6336C62.469 14.5303 62.469 14.4442 62.469 14.3753C63.1923 14.3925 63.7778 14.3236 64.2084 14.1342C64.6389 13.9447 64.88 13.6175 64.88 13.1525C64.88 12.8425 64.7766 12.5842 64.5528 12.3948C64.3461 12.2053 64.0533 12.1193 63.6917 12.1021C63.2611 12.1021 62.8995 12.2226 62.5895 12.4637C62.2796 12.6876 62.0384 12.9804 61.8662 13.342C61.694 13.6865 61.6079 14.0653 61.6079 14.4441C61.6079 14.8919 61.7284 15.2708 61.9695 15.5463C62.2106 15.8219 62.5895 15.9596 63.1062 15.9769C63.33 15.9769 63.5539 15.9597 63.795 15.908C64.0189 15.8563 64.2256 15.7875 64.415 15.6841L64.3289 15.0469L64.3461 15.0297ZM64.0533 13.1698C64.0533 13.3936 63.9156 13.5314 63.64 13.6175C63.3817 13.7036 63.02 13.7381 62.5551 13.7209C62.6067 13.4798 62.7273 13.2731 62.8995 13.0837C63.0717 12.8942 63.2956 12.7909 63.5711 12.7737C63.7089 12.7737 63.8295 12.8081 63.9156 12.877C64.0017 12.9459 64.0361 13.032 64.0533 13.1525V13.1698Z" fill="black"/>
<path fill-rule="evenodd" clip-rule="evenodd" d="M67.7731 15.0813C67.687 15.133 67.5664 15.1674 67.4459 15.2019C67.3081 15.2363 67.1704 15.2536 66.9982 15.2536C66.7398 15.2536 66.5504 15.1847 66.4126 15.0297C66.2749 14.8747 66.1888 14.6681 66.1888 14.3925C66.1888 14.1342 66.2404 13.8759 66.361 13.652C66.4815 13.4109 66.6365 13.2214 66.8432 13.0664C67.0498 12.9115 67.2909 12.8425 67.5837 12.8253C67.7042 12.8253 67.8248 12.8254 67.9109 12.8598C67.997 12.877 68.0831 12.9114 68.152 12.9459L68.3759 12.2571C68.3759 12.2571 68.2037 12.1882 68.0659 12.1538C67.9281 12.1193 67.7903 12.1021 67.6181 12.1021C67.1531 12.1021 66.7571 12.2226 66.3954 12.4293C66.051 12.6359 65.7754 12.9287 65.5688 13.2903C65.3621 13.652 65.276 14.0481 65.2588 14.4786C65.2588 14.9264 65.3966 15.288 65.6549 15.5463C65.9132 15.8046 66.2749 15.9424 66.7399 15.9596C66.981 15.9596 67.1876 15.9424 67.3598 15.8908C67.5492 15.8391 67.687 15.8046 67.7903 15.753L67.7559 15.0813H67.7731Z" fill="black"/>
<path fill-rule="evenodd" clip-rule="evenodd" d="M69.3059 15.8905L69.6159 14.1856C69.702 13.755 69.857 13.4106 70.0636 13.1867C70.2703 12.9628 70.4769 12.8423 70.6836 12.8423C70.8558 12.8423 70.9764 12.894 71.0453 12.9973C71.1142 13.1006 71.1486 13.2211 71.1486 13.3761C71.1486 13.445 71.1486 13.5139 71.1486 13.6C71.1486 13.6689 71.1313 13.755 71.1141 13.8239L70.7181 15.9077H71.5963L71.9924 13.755C72.0096 13.6689 72.0269 13.5656 72.0441 13.4451C72.0441 13.3245 72.0613 13.2383 72.0613 13.1522C72.0613 12.8078 71.958 12.5496 71.7858 12.3774C71.6136 12.2051 71.3897 12.1362 71.1141 12.1362C70.8558 12.1362 70.6147 12.2051 70.3908 12.3256C70.167 12.4462 69.9603 12.6356 69.7881 12.8767L69.8742 12.2223H69.082C69.0648 12.3773 69.0303 12.5495 69.0131 12.7562C68.9959 12.9628 68.9443 13.1522 68.8926 13.3761L68.4104 15.925H69.3059V15.8905Z" fill="black"/>
<path fill-rule="evenodd" clip-rule="evenodd" d="M74.2141 15.9762C74.6274 15.9762 75.0062 15.8557 75.3162 15.649C75.6262 15.4424 75.8845 15.1496 76.0567 14.8052C76.2289 14.4608 76.3323 14.0647 76.3323 13.6341C76.3323 13.3586 76.2806 13.1003 76.1601 12.8764C76.0395 12.6525 75.8845 12.4631 75.6607 12.3253C75.4368 12.1875 75.1612 12.1187 74.834 12.1187C74.4207 12.1187 74.0419 12.2392 73.7319 12.4459C73.4219 12.6525 73.1635 12.9453 72.9913 13.2897C72.8191 13.6341 72.7158 14.0302 72.7158 14.4435C72.7158 14.8913 72.8536 15.2529 73.1119 15.5285C73.3702 15.804 73.7491 15.959 74.2141 15.959V15.9762ZM74.3174 15.2874C74.0935 15.2874 73.9213 15.2013 73.8007 15.0463C73.6802 14.8913 73.6113 14.6847 73.6113 14.4264C73.6113 14.1853 73.663 13.9441 73.7491 13.703C73.8352 13.4447 73.9557 13.238 74.1279 13.0658C74.3001 12.8936 74.4896 12.8075 74.7307 12.7903C74.989 12.7903 75.1785 12.8936 75.2818 13.0658C75.3851 13.238 75.4368 13.4275 75.4368 13.6341C75.4368 13.8925 75.3851 14.1336 75.299 14.3919C75.2129 14.6502 75.0751 14.8568 74.9202 15.0118C74.7479 15.184 74.5585 15.2702 74.3346 15.2702L74.3174 15.2874Z" fill="black"/>
<path fill-rule="evenodd" clip-rule="evenodd" d="M77.5894 15.8906L78.6227 10.5176H77.7271L76.7111 15.8906H77.5894Z" fill="black"/>
<path fill-rule="evenodd" clip-rule="evenodd" d="M80.207 15.9759C80.6203 15.9759 80.9992 15.8554 81.3092 15.6487C81.6192 15.4421 81.8775 15.1493 82.0497 14.8049C82.2219 14.4605 82.3253 14.0644 82.3253 13.6339C82.3253 13.3583 82.2736 13.1 82.153 12.8761C82.0325 12.6522 81.8775 12.4628 81.6536 12.325C81.4297 12.1872 81.1542 12.1184 80.827 12.1184C80.3965 12.1184 80.0348 12.2389 79.7076 12.4456C79.3977 12.6522 79.1393 12.945 78.9671 13.2894C78.7949 13.6338 78.6915 14.0299 78.6915 14.4432C78.6915 14.891 78.8293 15.2526 79.0876 15.5282C79.346 15.8037 79.7249 15.9587 80.1898 15.9587L80.207 15.9759ZM80.3103 15.2871C80.0865 15.2871 79.9143 15.201 79.7937 15.046C79.6732 14.891 79.6043 14.6844 79.6043 14.4261C79.6043 14.185 79.656 13.9438 79.7421 13.7027C79.8282 13.4616 79.9487 13.2377 80.1209 13.0655C80.2931 12.8933 80.4826 12.8072 80.7237 12.79C80.982 12.79 81.1714 12.8933 81.2747 13.0655C81.3781 13.2377 81.4298 13.4272 81.4298 13.6339C81.4298 13.8922 81.3781 14.1333 81.292 14.3916C81.2059 14.6499 81.0681 14.8566 80.9131 15.0115C80.7409 15.1838 80.5515 15.2699 80.3276 15.2699L80.3103 15.2871ZM81.1886 10.6201L80.4654 11.7395H81.137L82.1358 10.6201H81.2059H81.1886Z" fill="black"/>
<path fill-rule="evenodd" clip-rule="evenodd" d="M82.6697 17.2334C82.7902 17.3195 82.9624 17.3712 83.1691 17.4229C83.3757 17.4745 83.5996 17.4917 83.8407 17.4917C84.0818 17.4917 84.3057 17.4745 84.5468 17.4056C84.7879 17.354 85.0118 17.2334 85.2012 17.0784C85.4079 16.9062 85.5629 16.6823 85.6834 16.3895C85.804 16.114 85.89 15.7868 85.9589 15.4251L86.5273 12.377C86.355 12.2909 86.1656 12.2392 85.9417 12.1875C85.7179 12.1358 85.494 12.1187 85.2529 12.1187C84.7362 12.1187 84.3057 12.2565 83.944 12.4803C83.5824 12.7214 83.3068 13.0141 83.1174 13.393C82.928 13.7719 82.8418 14.1508 82.8418 14.5813C82.8418 14.9429 82.9452 15.2358 83.1346 15.4941C83.3241 15.7352 83.6168 15.8729 83.9785 15.8901C84.2196 15.8901 84.4262 15.8384 84.6156 15.7351C84.8051 15.6318 84.9773 15.4596 85.1323 15.253L85.0462 15.6663C84.9601 16.0796 84.8051 16.3896 84.5985 16.5446C84.3918 16.6996 84.1507 16.8029 83.8579 16.7857C83.6857 16.7857 83.4963 16.7684 83.324 16.7167C83.1518 16.6823 82.9968 16.6307 82.8935 16.5618L82.6697 17.2334ZM85.339 14.013C85.2701 14.3574 85.1323 14.633 84.9429 14.8569C84.7534 15.0808 84.5468 15.184 84.3229 15.2012C84.099 15.2012 83.9612 15.1151 83.8579 14.9774C83.7718 14.8224 83.7202 14.6502 83.7202 14.4607C83.7202 14.1852 83.7891 13.9269 83.8924 13.6858C84.0129 13.4447 84.1507 13.238 84.3573 13.083C84.5468 12.9281 84.7879 12.8419 85.0462 12.8419C85.1495 12.8419 85.2529 12.842 85.339 12.8764C85.4251 12.8764 85.494 12.9108 85.5456 12.9452L85.339 14.0474V14.013Z" fill="black"/>
<path fill-rule="evenodd" clip-rule="evenodd" d="M87.7327 15.891L88.4215 12.2056H87.5432L86.8372 15.891H87.7155H87.7327ZM88.146 11.6718C88.301 11.6718 88.4215 11.6201 88.5249 11.534C88.6282 11.4479 88.6799 11.3101 88.6971 11.1379C88.6971 11.0001 88.6454 10.8796 88.5765 10.7935C88.4904 10.7074 88.3699 10.673 88.2321 10.6558C88.0771 10.6558 87.9565 10.7074 87.8532 10.8107C87.7499 10.914 87.6982 11.0346 87.6982 11.1896C87.6982 11.3274 87.7327 11.4479 87.8188 11.534C87.9049 11.6201 88.0082 11.6545 88.146 11.6545V11.6718Z" fill="black"/>
<path fill-rule="evenodd" clip-rule="evenodd" d="M91.3493 15.0813C91.2632 15.133 91.1426 15.1674 91.0221 15.2019C90.8843 15.2363 90.7466 15.2536 90.5743 15.2536C90.316 15.2536 90.1266 15.1847 89.9888 15.0297C89.851 14.8747 89.7649 14.6681 89.7649 14.3925C89.7649 14.1342 89.8166 13.8759 89.9372 13.652C90.0577 13.4109 90.2127 13.2214 90.4194 13.0664C90.626 12.9115 90.8671 12.8425 91.1599 12.8253C91.2804 12.8253 91.401 12.8254 91.4871 12.8598C91.5732 12.877 91.6593 12.9114 91.7281 12.9459L91.952 12.2571C91.952 12.2571 91.7798 12.1882 91.6421 12.1538C91.5043 12.1193 91.3665 12.1021 91.1943 12.1021C90.7293 12.1021 90.3332 12.2226 89.9716 12.4293C89.6272 12.6359 89.3516 12.9287 89.1449 13.2903C88.9383 13.652 88.8522 14.0481 88.835 14.4786C88.835 14.9264 88.9728 15.288 89.2311 15.5463C89.4894 15.8046 89.851 15.9424 90.316 15.9596C90.5571 15.9596 90.7638 15.9424 90.936 15.8908C91.1254 15.8391 91.2632 15.8046 91.3665 15.753L91.3321 15.0813H91.3493Z" fill="black"/>
<path fill-rule="evenodd" clip-rule="evenodd" d="M93.5191 15.9762C93.9324 15.9762 94.3113 15.8557 94.6213 15.649C94.9313 15.4424 95.1896 15.1496 95.3618 14.8052C95.534 14.4608 95.6374 14.0647 95.6374 13.6341C95.6374 13.3586 95.5857 13.1003 95.4652 12.8764C95.3446 12.6525 95.1896 12.4631 94.9657 12.3253C94.7418 12.1875 94.4663 12.1187 94.1391 12.1187C93.7258 12.1187 93.3469 12.2392 93.0369 12.4459C92.7269 12.6525 92.4686 12.9453 92.2964 13.2897C92.1242 13.6341 92.0209 14.0302 92.0209 14.4435C92.0209 14.8913 92.1586 15.2529 92.4169 15.5285C92.6753 15.804 93.0541 15.959 93.5191 15.959V15.9762ZM93.6224 15.2874C93.3986 15.2874 93.2264 15.2013 93.1058 15.0463C92.9853 14.8913 92.9164 14.6847 92.9164 14.4264C92.9164 14.1853 92.9681 13.9441 93.0542 13.703C93.1403 13.4447 93.2608 13.238 93.433 13.0658C93.6053 12.8936 93.7946 12.8075 94.0357 12.7903C94.2941 12.7903 94.4835 12.8936 94.5868 13.0658C94.6902 13.238 94.7418 13.4275 94.7418 13.6341C94.7418 13.8925 94.6902 14.1336 94.6041 14.3919C94.518 14.6502 94.3802 14.8568 94.2252 15.0118C94.053 15.184 93.8636 15.2702 93.6397 15.2702L93.6224 15.2874Z" fill="black"/>
<path fill-rule="evenodd" clip-rule="evenodd" d="M10.5465 12.3085L10.0471 12.2224C6.68894 11.7574 4.86345 13.2212 4.10571 14.0823C3.4513 14.8228 2.33195 17.0099 3.93354 18.7492C5.77623 20.7641 9.27213 19.7481 9.27213 19.7481L9.59934 17.8193C5.27677 18.9732 4.67402 16.5794 5.87951 15.15C7.25722 13.514 10.2365 14.1856 10.2365 14.1856L10.5465 12.3085ZM13.4225 10.8792L13.1125 12.3429H11.4593L11.1321 14.0823H12.8025L12.1309 17.2855C12.0448 18.4737 12.6476 19.0593 12.6476 19.0593C13.8703 20.4715 16.2812 19.4037 16.2812 19.4037L16.5568 17.3888L16.0229 17.6815C14.2663 18.3187 14.6108 16.6138 14.6108 16.6138L15.1102 14.0651H16.729L16.9873 12.3774H15.4374L15.713 10.8792H13.457H13.4225ZM24.7197 12.3085L24.2203 12.2224C20.8622 11.7574 19.0367 13.2212 18.2789 14.0823C17.6245 14.8228 16.5051 17.0099 18.1067 18.7492C19.9494 20.7641 23.4453 19.7481 23.4453 19.7481L23.7726 17.8193C19.45 18.9732 18.8472 16.5794 20.0527 15.15C21.4477 13.514 24.4097 14.1856 24.4097 14.1856L24.7197 12.3085ZM30.2995 19.5932C27.5613 23.3991 23.6864 25.9823 21.6026 26.5678C17.3834 27.7389 12.1998 26.8778 7.34334 25.8101C5.87952 25.4829 7.06779 26.4989 7.06779 26.4989C11.3043 30.3737 20.9655 27.6528 20.9655 27.6528C20.9655 27.6528 8.56606 33.9041 2.0736 26.8089C-0.130735 24.4152 -0.526804 20.2992 0.64425 16.3899C2.22862 11.7401 6.06896 7.19371 9.44435 4.98937C16.3846 0.477368 25.2708 3.35341 26.0458 3.12954C26.1663 3.09509 26.0975 3.06058 26.0975 3.06058C21.9471 0.735697 15.8335 1.35568 15.8335 1.35568L16.884 0.925149C25.5119 -1.83027 33.4165 1.68287 33.5888 9.94914C33.606 11.1719 33.4682 12.343 33.2099 13.4624C33.1754 13.3763 32.7449 12.9456 32.7449 12.9456C31.0055 11.3613 28.1468 12.3602 28.1468 12.3602L28.1812 12.1018H25.8736L24.2203 21.3153H26.4074L26.7519 19.6448C28.8012 20.0581 30.2995 19.5932 30.2995 19.5932ZM27.7851 14.1339L28.2845 13.9273C30.7472 12.9801 32.1077 15.1328 30.7817 16.8722C29.5073 18.5426 27.1307 17.6643 27.1307 17.6643L27.7851 14.1339Z" fill="#AAAD00"/>
</svg>
