<?xml version="1.0" encoding="iso-8859-1"?>
<!-- Uploaded to: SVG Repo, www.svgrepo.com, Generator: SVG Repo Mixer Tools -->
<svg height="800px" width="800px" version="1.1" id="Layer_1" xmlns="http://www.w3.org/2000/svg" xmlns:xlink="http://www.w3.org/1999/xlink" 
	 viewBox="0 0 300.725 300.725" xml:space="preserve">
<g>
	<g id="basket-shopping-retail-buy_1_">
		<path style="fill:#F8CF26;" d="M35.241,166.236h239.641c11.658,0,21.145-9.487,21.145-21.145s-9.487-21.145-21.145-21.145h-21.276
			c0.221,0,0.085,3.562-0.507,5.784c-1.297,4.849-4.408,8.439-8.759,10.948c-2.899,1.673-6.113,2.293-9.369,2.293
			c-1.635,0-3.275-0.334-4.896-0.766c-4.849-1.297-8.904-3.543-11.413-7.889l-6.489-10.375H97.947l-6.489,10.314
			c-2.514,4.346-6.564,6.997-11.413,8.293c-1.616,0.432-3.261,0.418-4.896,0.418c-3.256,0-6.47-0.968-9.369-2.641
			c-4.346-2.509-7.457-5.695-8.759-10.544c-0.597-2.223-0.728-5.841-0.507-5.841H35.241c-11.658,0-21.145,9.487-21.145,21.145
			C14.097,156.744,23.583,166.236,35.241,166.236z"/>
		<path style="fill:#F8CF26;" d="M70.483,132.075c2.171,1.255,4.699,1.584,7.133,0.94c2.425-0.648,4.45-2.204,5.704-4.379
			l56.386-97.661c1.255-2.176,1.588-4.708,0.94-7.133c-0.653-2.425-2.204-4.45-4.379-5.704c-1.447-0.836-3.054-1.264-4.685-1.264
			c-0.813,0-1.635,0.108-2.448,0.324c-2.425,0.648-4.45,2.204-5.704,4.379l-56.386,97.661c-1.255,2.176-1.588,4.708-0.94,7.133
			C66.756,128.795,68.307,130.821,70.483,132.075z"/>
		<path style="fill:#F8CF26;" d="M232.508,133.015c2.425,0.644,4.957,0.315,7.133-0.94s3.726-3.28,4.379-5.704
			s0.315-4.957-0.94-7.133l-56.386-97.661c-1.255-2.176-3.28-3.731-5.704-4.379c-0.808-0.216-1.63-0.324-2.448-0.324
			c-1.631,0-3.238,0.428-4.685,1.264c-2.176,1.255-3.726,3.28-4.379,5.704s-0.315,4.957,0.94,7.133l56.386,97.661
			C228.058,130.811,230.083,132.367,232.508,133.015z"/>
		<path style="fill:#FFFFFF;" d="M84.579,201.975c-2.589,0-4.699,2.11-4.699,4.699v46.988c0,2.589,2.11,4.699,4.699,4.699
			s4.699-2.11,4.699-4.699v-46.988C89.278,204.085,87.168,201.975,84.579,201.975z"/>
		<path style="fill:#FFFFFF;" d="M225.544,201.975c-2.589,0-4.699,2.11-4.699,4.699v46.988c0,2.589,2.11,4.699,4.699,4.699
			s4.699-2.11,4.699-4.699v-46.988C230.243,204.085,228.133,201.975,225.544,201.975z"/>
		<path style="fill:#3ADDBE;" d="M35.241,175.633h-1.602l15.619,105.442c1.015,6.856,7.011,12.029,13.946,12.029h179.599
			c6.795,0,12.626-4.849,13.862-11.531l19.618-105.94h-1.4C274.882,175.633,35.241,175.633,35.241,175.633z M98.676,253.662
			c0,7.772-6.325,14.096-14.097,14.096s-14.096-6.325-14.096-14.096v-46.988c0-7.772,6.325-14.096,14.096-14.096
			s14.097,6.325,14.097,14.096V253.662z M145.664,253.662c0,7.772-6.325,14.096-14.096,14.096s-14.097-6.325-14.097-14.096v-46.988
			c0-7.772,6.325-14.096,14.097-14.096s14.096,6.325,14.096,14.096V253.662z M192.652,253.662c0,7.772-6.325,14.096-14.097,14.096
			s-14.096-6.325-14.096-14.096v-46.988c0-7.772,6.325-14.096,14.096-14.096s14.097,6.325,14.097,14.096V253.662z M239.641,253.662
			c0,7.772-6.325,14.096-14.097,14.096s-14.096-6.325-14.096-14.096v-46.988c0-7.772,6.325-14.096,14.096-14.096
			s14.097,6.325,14.097,14.096V253.662z"/>
		<path style="fill:#FFFFFF;" d="M131.567,201.975c-2.589,0-4.699,2.11-4.699,4.699v46.988c0,2.589,2.11,4.699,4.699,4.699
			s4.699-2.11,4.699-4.699v-46.988C136.266,204.085,134.156,201.975,131.567,201.975z"/>
		<path style="fill:#FFFFFF;" d="M178.556,201.975c-2.589,0-4.699,2.11-4.699,4.699v46.988c0,2.589,2.11,4.699,4.699,4.699
			s4.699-2.11,4.699-4.699v-46.988C183.255,204.085,181.145,201.975,178.556,201.975z"/>
		<path d="M300.725,139.467c0-16.841-13.702-29.617-30.542-29.617h-24.725l-55.324-96.744c-2.514-4.346-6.564-7.922-11.413-9.219
			s-9.915-0.865-14.261,1.645c-4.346,2.509-7.457,6.447-8.759,11.296s-0.63,10.779,1.875,15.13l44.474,77.893H98.676l44.47-77.949
			c2.509-4.351,3.176-9.877,1.875-14.726c-1.302-4.849-4.408-9.135-8.754-11.644c-4.342-2.509-9.412-3.289-14.261-1.992
			s-8.904,5.277-11.413,9.623l-55.324,96.688H30.542C13.702,109.85,0,122.626,0,139.467c0,12.795,7.918,23.302,19.11,27.836
			l16.155,109.755c1.692,11.432,11.686,20.745,23.24,20.745h179.599c11.324,0,21.041-9.008,23.104-20.139l20.346-109.873
			C292.775,163.271,300.725,152.29,300.725,139.467z M164.779,19.143c0.653-2.425,2.204-4.45,4.379-5.704
			c1.447-0.836,3.054-1.264,4.685-1.264c0.813,0,1.635,0.108,2.448,0.324c2.425,0.648,4.45,2.204,5.704,4.379l56.386,97.661
			c1.255,2.176,1.588,4.708,0.94,7.133s-2.204,4.45-4.379,5.704c-2.171,1.255-4.704,1.584-7.133,0.94
			c-2.425-0.648-4.45-2.204-5.704-4.379l-56.386-97.661C164.464,24.101,164.13,21.568,164.779,19.143z M62.344,114.539l56.386-97.66
			c1.255-2.176,3.28-3.731,5.704-4.379c0.808-0.216,1.63-0.324,2.448-0.324c1.63,0,3.237,0.428,4.685,1.264
			c2.176,1.255,3.726,3.28,4.379,5.704s0.315,4.957-0.94,7.133L78.62,123.938c-1.255,2.176-3.28,3.731-5.704,4.379
			c-2.434,0.644-4.962,0.315-7.133-0.94c-2.176-1.255-3.726-3.28-4.379-5.704C60.756,119.247,61.09,116.715,62.344,114.539z
			 M271.583,170.935l-19.618,105.94c-1.236,6.682-7.067,11.531-13.862,11.531H58.505c-6.935,0-12.926-5.173-13.946-12.029
			L28.94,170.935h1.602h239.641H271.583z M270.183,161.537H30.542c-11.658,0-21.145-9.487-21.145-21.145s9.487-21.145,21.145-21.145
			h21.276c-0.221,0-0.085,3.562,0.507,5.784c1.297,4.849,4.408,8.439,8.759,10.948c2.899,1.673,6.108,2.293,9.369,2.293
			c1.63,0,3.275-0.334,4.896-0.766c4.849-1.297,8.904-3.543,11.413-7.889l6.489-10.375h114.224l6.489,10.314
			c2.514,4.346,6.564,6.997,11.413,8.293c1.616,0.432,3.261,0.418,4.896,0.418c3.256,0,6.47-0.968,9.369-2.641
			c4.346-2.509,7.457-5.695,8.759-10.544c0.597-2.223,0.728-5.841,0.507-5.841h21.272c11.658,0,21.145,9.487,21.145,21.145
			C291.328,152.045,281.841,161.537,270.183,161.537z"/>
		<path d="M79.88,263.06c7.772,0,14.097-6.325,14.097-14.096v-46.988c0-7.772-6.325-14.096-14.097-14.096
			s-14.097,6.325-14.097,14.096v46.988C65.784,256.735,72.108,263.06,79.88,263.06z M75.181,201.975c0-2.589,2.11-4.699,4.699-4.699
			s4.699,2.11,4.699,4.699v46.988c0,2.589-2.11,4.699-4.699,4.699s-4.699-2.11-4.699-4.699V201.975z"/>
		<path d="M126.869,263.06c7.772,0,14.097-6.325,14.097-14.096v-46.988c0-7.772-6.325-14.096-14.097-14.096
			s-14.097,6.325-14.097,14.096v46.988C112.772,256.735,119.097,263.06,126.869,263.06z M122.17,201.975
			c0-2.589,2.11-4.699,4.699-4.699s4.699,2.11,4.699,4.699v46.988c0,2.589-2.11,4.699-4.699,4.699s-4.699-2.11-4.699-4.699V201.975z
			"/>
		<path d="M173.857,263.06c7.772,0,14.097-6.325,14.097-14.096v-46.988c0-7.772-6.325-14.096-14.097-14.096
			s-14.096,6.325-14.096,14.096v46.988C159.76,256.735,166.085,263.06,173.857,263.06z M169.158,201.975
			c0-2.589,2.11-4.699,4.699-4.699s4.699,2.11,4.699,4.699v46.988c0,2.589-2.11,4.699-4.699,4.699s-4.699-2.11-4.699-4.699V201.975z
			"/>
		<path d="M220.845,263.06c7.772,0,14.097-6.325,14.097-14.096v-46.988c0-7.772-6.325-14.096-14.097-14.096
			s-14.096,6.325-14.096,14.096v46.988C206.749,256.735,213.073,263.06,220.845,263.06z M216.146,201.975
			c0-2.589,2.11-4.699,4.699-4.699s4.699,2.11,4.699,4.699v46.988c0,2.589-2.11,4.699-4.699,4.699s-4.699-2.11-4.699-4.699V201.975z
			"/>
	</g>
	<g id="Layer_1_1_">
	</g>
</g>
</svg>