<svg width="24" height="24" viewBox="0 0 24 24" fill="none" xmlns="http://www.w3.org/2000/svg">
<path d="M20.6997 12.473C19.7329 9.36233 16.6643 7.23952 12.9861 7.17647V3.54037C12.9861 3.37222 12.839 3.2251 12.6709 3.2251C12.6078 3.2251 12.5448 3.24612 12.4817 3.28815L3.12873 10.0559C2.98161 10.161 2.96059 10.3502 3.06568 10.4973C3.0867 10.5183 3.10772 10.5393 3.12873 10.5603L12.4817 17.2861C12.6288 17.3912 12.818 17.3491 12.9231 17.223C12.9651 17.16 12.9861 17.0969 12.9861 17.0339V13.4188C15.2561 13.4188 17.1687 14.4907 17.8413 16.1091C18.4088 17.4963 17.9464 18.9885 16.6012 20.2286C16.4751 20.3547 16.4541 20.5439 16.5802 20.67C16.6433 20.733 16.7273 20.7751 16.8114 20.7751H17.0636C17.1267 20.7751 17.1897 20.754 17.2318 20.712C20.3214 18.6733 21.6455 15.4996 20.6997 12.473Z" fill="black"/>
</svg>
