<svg width="24" height="24" viewBox="0 0 24 24" fill="none" xmlns="http://www.w3.org/2000/svg">
<path fill-rule="evenodd" clip-rule="evenodd" d="M13.1371 3.49271L14.2803 4.34846C14.593 4.5825 14.9221 4.70227 15.312 4.72399L16.7378 4.8033C17.5916 4.85077 18.285 5.43259 18.48 6.26517L18.8057 7.65556C18.8948 8.03581 19.0699 8.33911 19.3547 8.60637L20.396 9.58366C21.0194 10.1688 21.1766 11.0602 20.7909 11.8234L20.1467 13.0978C19.9705 13.4464 19.9097 13.7912 19.956 14.179L20.1255 15.597C20.227 16.446 19.7744 17.2299 18.9884 17.5665L17.6757 18.1287C17.3167 18.2825 17.0484 18.5076 16.8346 18.8344L16.053 20.0296C15.585 20.7452 14.7344 21.0548 13.916 20.8074L12.549 20.3943C12.1752 20.2813 11.8249 20.2813 11.4511 20.3943L10.0841 20.8074C9.26564 21.0548 8.41507 20.7452 7.94706 20.0296L7.16545 18.8344C6.95166 18.5076 6.68339 18.2825 6.3244 18.1287L5.01159 17.5665C4.22559 17.2298 3.773 16.446 3.87448 15.5969L4.04398 14.179C4.09033 13.7912 4.0295 13.4463 3.85333 13.0977L3.20911 11.8233C2.82339 11.0602 2.98055 10.1688 3.60403 9.58359L4.64529 8.6063C4.93007 8.33903 5.10516 8.03573 5.19422 7.65548L5.51995 6.26509C5.71495 5.43255 6.40836 4.85074 7.26213 4.80322L8.68792 4.72391C9.07788 4.70224 9.40698 4.58242 9.71966 4.34839L10.8629 3.49263C11.5474 2.98031 12.4526 2.98031 13.1371 3.49271ZM11.2707 12.4897L10.03 11.249C9.70848 10.9275 9.18689 10.9275 8.86537 11.249C8.5438 11.5706 8.5438 12.0922 8.86537 12.4137L10.6902 14.2385C11.0117 14.56 11.5333 14.56 11.8548 14.2385C12.9547 13.1386 14.0421 12.0263 15.137 10.9214C15.4562 10.5992 15.4552 10.0793 15.1334 9.75927C14.8116 9.43921 14.2902 9.44011 13.9706 9.76287L11.2707 12.4897ZM12 5.86695C10.3064 5.86695 8.77315 6.55343 7.6633 7.66328C6.55345 8.77317 5.86697 10.3064 5.86697 11.9999C5.86697 13.6935 6.55345 15.2268 7.6633 16.3366C8.77315 17.4465 10.3064 18.1329 12 18.1329C13.6935 18.1329 15.2268 17.4465 16.3366 16.3366C17.4465 15.2268 18.133 13.6935 18.133 11.9999C18.133 10.3064 17.4465 8.77313 16.3366 7.66328C15.2268 6.55343 13.6935 5.86695 12 5.86695ZM15.9124 8.08752C14.9111 7.08627 13.5279 6.46695 12 6.46695C10.4721 6.46695 9.08879 7.08627 8.08754 8.08752C7.08629 9.08877 6.46697 10.472 6.46697 11.9999C6.46697 13.5278 7.08629 14.9111 8.08754 15.9124C9.08879 16.9136 10.4721 17.5329 12 17.5329C13.5279 17.5329 14.9111 16.9136 15.9124 15.9124C16.9136 14.9111 17.5329 13.5279 17.5329 12C17.533 10.472 16.9136 9.08877 15.9124 8.08752Z" fill="black"/>
</svg>
