<svg width="17" height="17" viewBox="0 0 17 17" fill="none" xmlns="http://www.w3.org/2000/svg">
<g clip-path="url(#clip0_161_899)">
<path d="M1 10.4C1.13261 10.4 1.25979 10.4527 1.35355 10.5465C1.44732 10.6402 1.5 10.7674 1.5 10.9V13.4C1.5 13.6652 1.60536 13.9196 1.79289 14.1071C1.98043 14.2947 2.23478 14.4 2.5 14.4H14.5C14.7652 14.4 15.0196 14.2947 15.2071 14.1071C15.3946 13.9196 15.5 13.6652 15.5 13.4V10.9C15.5 10.7674 15.5527 10.6402 15.6464 10.5465C15.7402 10.4527 15.8674 10.4 16 10.4C16.1326 10.4 16.2598 10.4527 16.3536 10.5465C16.4473 10.6402 16.5 10.7674 16.5 10.9V13.4C16.5 13.9305 16.2893 14.4392 15.9142 14.8142C15.5391 15.1893 15.0304 15.4 14.5 15.4H2.5C1.96957 15.4 1.46086 15.1893 1.08579 14.8142C0.710714 14.4392 0.5 13.9305 0.5 13.4V10.9C0.5 10.7674 0.552678 10.6402 0.646447 10.5465C0.740215 10.4527 0.867392 10.4 1 10.4Z" fill="white"/>
<path d="M8.14602 12.354C8.19247 12.4006 8.24764 12.4375 8.30839 12.4627C8.36913 12.4879 8.43425 12.5009 8.50002 12.5009C8.56579 12.5009 8.63091 12.4879 8.69165 12.4627C8.7524 12.4375 8.80758 12.4006 8.85402 12.354L11.854 9.354C11.9479 9.26011 12.0007 9.13278 12.0007 9C12.0007 8.86722 11.9479 8.73989 11.854 8.646C11.7601 8.55211 11.6328 8.49937 11.5 8.49937C11.3672 8.49937 11.2399 8.55211 11.146 8.646L9.00002 10.793V2C9.00002 1.86739 8.94734 1.74021 8.85358 1.64645C8.75981 1.55268 8.63263 1.5 8.50002 1.5C8.36741 1.5 8.24024 1.55268 8.14647 1.64645C8.0527 1.74021 8.00002 1.86739 8.00002 2V10.793L5.85402 8.646C5.76013 8.55211 5.6328 8.49937 5.50002 8.49937C5.36725 8.49937 5.23991 8.55211 5.14602 8.646C5.05213 8.73989 4.99939 8.86722 4.99939 9C4.99939 9.13278 5.05213 9.26011 5.14602 9.354L8.14602 12.354Z" fill="white"/>
</g>
<defs>
<clipPath id="clip0_161_899">
<rect width="16" height="16" fill="white" transform="translate(0.5 0.5)"/>
</clipPath>
</defs>
</svg>
