<svg width="24" height="24" viewBox="0 0 24 24" fill="none" xmlns="http://www.w3.org/2000/svg">
<path d="M3 10.9088V15.5671C3 16.9086 4.08746 17.9961 5.42894 17.9961H18.5711C19.9125 17.9961 21 16.9086 21 15.5671V10.9088C21 10.6755 20.8109 10.4863 20.5776 10.4863H3.42242C3.18914 10.4863 3 10.6755 3 10.9088ZM7.49414 13.8657H6.36767C5.9594 13.8657 5.62843 13.5348 5.62843 13.1265C5.62843 12.7182 5.9594 12.3872 6.36767 12.3872H7.49414C7.90241 12.3872 8.23338 12.7182 8.23338 13.1265C8.23338 13.5348 7.90241 13.8657 7.49414 13.8657Z" fill="black"/>
<path d="M21 8.58538V8.43285C21 7.09137 19.9125 6.00391 18.5711 6.00391H5.42894C4.08746 6.00391 3 7.09137 3 8.43285V8.58538C3 8.81866 3.18914 9.0078 3.42242 9.0078H20.5776C20.8109 9.0078 21 8.81866 21 8.58538Z" fill="black"/>
</svg>
